<svg width="80" height="24" viewBox="0 0 80 24" fill="none" xmlns="http://www.w3.org/2000/svg">
<g id="Fastify_logo 1" clip-path="url(#clip0_1_5220)">
<path id="Vector" d="M65.487 12.7289L63.1629 13.3413L63.9141 11.395L66.1566 10.8044L66.1866 10.9166L65.487 12.7289ZM62.4588 13.3789L60.1348 13.9914L60.886 12.0453L63.1285 11.4544L63.1585 11.5667L62.4588 13.3789ZM61.6849 9.50016L63.9274 8.90937L63.9574 9.02156L63.2577 10.8341L60.9337 11.4463L61.6849 9.50016ZM78.8355 3.35484L79.9962 0.348594L79.9462 0.162344L68.4637 3.18797C69.6874 1.41656 69.2668 -0.00390625 69.2668 -0.00390625C69.2668 -0.00390625 65.5998 2.33797 62.8265 2.27641C60.0532 2.21484 59.1596 1.47531 54.9071 2.83109C50.6546 4.18687 49.4529 8.34703 48.2204 9.24047C46.9879 10.1342 43.1205 13.0461 43.1205 13.0461L43.1291 13.0981L46.6155 11.988C46.6155 11.988 45.6595 12.8892 43.628 15.627C43.628 15.627 43.5927 15.5945 43.5335 15.5387L43.5366 15.5575C43.5366 15.5575 45.1698 18.0534 46.7721 17.5912C46.9326 17.545 47.1141 17.4677 47.313 17.3669C47.9582 17.7261 48.8005 18.0795 49.7302 18.1767C49.7302 18.1767 49.1005 17.4455 48.5759 16.6127C48.7177 16.5209 48.863 16.4263 49.0113 16.3297L48.9432 16.3781L50.2713 16.8656L50.1245 15.6178L50.1377 15.6097L51.4424 16.0886L51.2799 14.9538C51.443 14.8682 51.6082 14.7867 51.7752 14.7092L53.1354 9.56406L58.759 5.72781L58.3121 6.8525C57.1721 9.65656 55.0304 10.3191 55.0304 10.3191L54.1366 10.6581C53.472 11.4438 53.1924 11.637 52.9638 14.2742C53.4998 14.1392 54.012 14.1075 54.4757 14.2323C56.8793 14.8795 57.7113 17.7761 57.0643 18.5773C56.9024 18.7777 56.5168 19.1208 56.0296 19.5227H55.0545L55.0418 20.3128C55.0084 20.3389 54.9751 20.365 54.9415 20.3909H53.9493L53.937 21.1622L53.6771 21.3586C52.7443 21.378 51.5638 20.5648 51.5638 20.5648C51.5638 21.3044 52.1802 22.4445 52.1802 22.4445C52.1802 22.4445 52.2205 22.4252 52.2891 22.3914L52.1955 22.46C52.1955 22.46 54.6916 24.1241 56.2632 23.5077C57.6609 22.9595 61.278 20.1069 64.4009 18.7573L73.8507 16.2675L75.097 13.0392L67.8957 14.9366V12.037L76.343 9.81125L77.5895 6.58312L67.8957 9.13703V6.23703L78.8355 3.35484ZM35.6262 7.25672L35.682 11.6067C35.7002 12.4583 35.719 13.0877 35.7002 13.7542H35.7374C35.9223 13.0136 36.1077 12.403 36.4223 11.4403L37.7923 7.25687H40.1246L37.1629 14.3834C36.2743 16.4569 35.2562 18.1969 34.1454 19.215C33.6088 19.7145 32.9793 20.1034 32.5907 20.2702L31.6651 18.3819C32.0723 18.1781 32.4979 17.9375 32.8682 17.6416C33.3868 17.2156 33.8863 16.6973 34.1087 16.1975C34.1454 16.0678 34.1824 15.9755 34.1641 15.7905L33.2015 7.25687L35.6262 7.25672ZM29.2212 7.25672L29.2949 6.88641C29.4987 5.81297 29.906 4.88734 30.6649 4.18375C31.2202 3.66547 32.0348 3.35094 32.9602 3.35094C33.5527 3.35094 33.9968 3.44344 34.2746 3.53594L33.7563 5.31297C33.5345 5.23891 33.3307 5.20203 33.0345 5.20203C32.2013 5.20203 31.7202 6.07203 31.572 6.86797L31.4979 7.25672H34.1823L33.8676 8.88578H31.2204L29.7949 16.3086H27.4812L28.9066 8.88578M25.8957 4.94281C25.8957 4.27656 26.377 3.51766 27.1913 3.51766C27.9502 3.51766 28.3023 4.09125 28.2835 4.72078C28.2651 5.64625 27.6357 6.16453 26.9507 6.16453C26.2101 6.16453 25.877 5.62812 25.8957 4.94281ZM23.7299 16.3086L25.4699 7.25672H27.7835L26.0437 16.3086H23.7299ZM23.1743 4.81328L22.7115 7.25672H26.266L25.9698 8.88578H22.3968L21.6009 13.0878C21.5454 13.4023 21.5266 13.68 21.5266 13.8467C21.5266 14.402 21.8045 14.6056 22.2302 14.6056C22.3968 14.6056 22.6376 14.6056 22.8596 14.5686L22.5818 16.3086C22.1562 16.4198 21.6379 16.4569 21.1935 16.4569C19.8054 16.4569 19.1201 15.6792 19.1201 14.4575C19.1201 14.0505 19.1943 13.5505 19.2868 13.1061L20.0829 8.88578H19.0277L19.3426 7.25672H20.3977L20.7677 5.38719L23.1743 4.81328ZM12.9563 14.3278C13.3266 14.5314 13.771 14.7164 14.4188 14.6981C15.0852 14.6797 15.4552 14.2538 15.4552 13.68C15.4552 13.18 15.2148 12.8284 14.5854 12.3288C13.808 11.6992 13.4377 10.9033 13.4377 10.1258C13.4377 8.45969 14.7334 7.10859 16.788 7.10859C17.5841 7.10859 18.1577 7.25656 18.491 7.44141L17.991 9.12609C17.732 8.97812 17.3063 8.84859 16.9176 8.84859C16.1773 8.84859 15.7145 9.23734 15.7145 9.84797C15.7145 10.3108 15.9737 10.5886 16.3995 10.9402C17.4174 11.7178 17.7507 12.6061 17.7507 13.3095C17.7507 15.3086 16.3623 16.4195 14.2891 16.4195C13.456 16.4195 12.7157 16.1788 12.4009 15.9567L12.9563 14.3278ZM10.1421 8.88594C9.95727 8.84891 9.79055 8.83031 9.66102 8.83031C8.1432 8.83031 7.32883 11.8477 7.31008 13.1803C7.31008 13.9764 7.42117 14.55 7.99523 14.55C8.6243 14.55 9.21664 13.5136 9.54992 11.8661L10.1421 8.88594ZM9.3093 16.3088C9.32773 15.8275 9.36492 15.3277 9.3832 14.7908H9.32805C8.60617 15.9942 7.73586 16.457 7.01398 16.457C5.69992 16.457 5.05195 15.3277 5.05195 13.7356C5.05195 10.9959 6.4218 7.10891 10.309 7.10891C11.2162 7.10891 12.123 7.25688 12.6784 7.47891L11.6788 12.5136C11.4565 13.5687 11.2899 15.3275 11.3085 16.3084L9.3093 16.3088ZM1.73852 7.25687L1.81227 6.88656C2.01602 5.81312 2.4232 4.8875 3.18227 4.18391C3.73758 3.66578 4.55195 3.35109 5.47758 3.35109C6.07008 3.35109 6.51414 3.44359 6.79195 3.53609L6.27336 5.31328C6.05102 5.23906 5.84758 5.20234 5.55148 5.20234C4.71836 5.20234 4.23727 6.07219 4.08898 6.86828L4.01492 7.25687H5.77352L5.45867 8.88594H3.73758L2.31211 16.3088H-0.00195312L1.42367 8.88594" fill="white"/>
</g>
<defs>
<clipPath id="clip0_1_5220">
<rect width="80" height="23.6484" fill="white"/>
</clipPath>
</defs>
</svg>
