<svg width="80" height="34" viewBox="0 0 80 34" fill="none" xmlns="http://www.w3.org/2000/svg">
<g id="Git-logo 1" clip-path="url(#clip0_1_5225)">
<path id="Vector" d="M47.9455 11.3734C46.1914 11.3734 44.8851 12.2347 44.8851 14.3077C44.8851 15.8696 45.746 16.9538 47.8511 16.9538C49.6352 16.9538 50.847 15.9026 50.847 14.2432C50.847 12.3628 49.7626 11.3734 47.9455 11.3734ZM44.4373 26.01C44.0222 26.5194 43.6086 27.0607 43.6086 27.6995C43.6086 28.9739 45.2337 29.3574 47.4661 29.3574C49.3155 29.3574 51.8345 29.2279 51.8345 27.5085C51.8345 26.4865 50.6226 26.4233 49.0913 26.3272L44.4373 26.01ZM53.8748 11.4698C54.4478 12.2034 55.0545 13.2239 55.0545 14.6905C55.0545 18.2295 52.2805 20.3019 48.2641 20.3019C47.2427 20.3019 46.318 20.1747 45.7446 20.0155L44.6921 21.7051L47.8164 21.8959C53.3328 22.2474 56.584 22.4071 56.584 26.6462C56.584 30.3139 53.3645 32.3851 47.8164 32.3851C42.0456 32.3851 39.8457 30.9183 39.8457 28.3998C39.8457 26.9644 40.4835 26.2009 41.5995 25.1471C40.5469 24.7022 40.1967 23.9056 40.1967 23.0443C40.1967 22.3424 40.5469 21.7049 41.1217 21.0986C41.6954 20.4934 42.3329 19.8868 43.0982 19.1856C41.5361 18.4205 40.3561 16.7625 40.3561 14.4027C40.3561 10.7366 42.7795 8.21869 47.6568 8.21869C49.0281 8.21869 49.8575 8.3449 50.5908 8.53739H56.8086V11.2468L53.8748 11.4698Z" fill="white"/>
<path id="Vector_2" d="M62.4206 5.67584C60.6027 5.67584 59.551 4.62273 59.551 2.80468C59.551 0.988912 60.6028 -0.000244141 62.4206 -0.000244141C64.2699 -0.000244141 65.3221 0.988912 65.3221 2.80468C65.3221 4.6227 64.2699 5.67584 62.4206 5.67584ZM58.3069 24.8365V22.3189L59.9335 22.0964C60.3801 22.0317 60.4434 21.9368 60.4434 21.4574V12.0837C60.4434 11.7337 60.3482 11.5096 60.0284 11.4147L58.3069 10.8083L58.6575 8.22668H65.258V21.4576C65.258 21.9687 65.2888 22.0319 65.7683 22.0966L67.3946 22.3191V24.8367H58.3066" fill="white"/>
<path id="Vector_3" d="M80.0038 23.6014C78.6322 24.2701 76.624 24.876 74.8057 24.876C71.0117 24.876 69.5774 23.3471 69.5774 19.7427V11.3898C69.5774 11.1989 69.5774 11.0708 69.3213 11.0708H67.0898V8.23328C69.8965 7.91359 71.0116 6.51042 71.3624 3.03516H74.3917V7.56417C74.3917 7.78655 74.3917 7.88287 74.6471 7.88287H79.1424V11.0707H74.3918V18.6906C74.3918 20.572 74.8387 21.3047 76.5595 21.3047C77.4534 21.3047 78.377 21.0822 79.1423 20.795L80.0038 23.6014Z" fill="white"/>
<path id="Vector_4" d="M32.7608 15.2308L18.1814 0.653156C17.3425 -0.186469 15.9809 -0.186469 15.1409 0.653156L12.1137 3.68071L15.9537 7.52068C16.8464 7.21927 17.8696 7.42136 18.5808 8.13276C19.2958 8.84858 19.4964 9.88053 19.1875 10.7762L22.8885 14.4773C23.7839 14.1687 24.817 14.3681 25.532 15.0843C26.5316 16.0836 26.5316 17.7029 25.532 18.7024C24.5322 19.7023 22.913 19.7023 21.9127 18.7024C21.1611 17.9502 20.9752 16.8459 21.3559 15.9198L17.9042 12.4682L17.9039 21.5511C18.1476 21.6718 18.3776 21.8328 18.5807 22.035C19.58 23.0342 19.58 24.6531 18.5807 25.654C17.5811 26.6531 15.9611 26.6531 14.9626 25.654C13.9631 24.6532 13.9631 23.0343 14.9626 22.035C15.2096 21.7884 15.4954 21.6018 15.8003 21.4767V12.3094C15.4952 12.1848 15.2098 11.9996 14.9624 11.751C14.2054 10.9946 14.023 9.88352 14.4113 8.95389L10.6258 5.16784L0.629917 15.1634C-0.209972 16.0037 -0.209972 17.3654 0.629917 18.2051L15.2085 32.7827C16.0478 33.6223 17.409 33.6223 18.2495 32.7827L32.7606 18.2739C33.6003 17.4339 33.6003 16.0718 32.7606 15.232" fill="#F05133"/>
</g>
<defs>
<clipPath id="clip0_1_5225">
<rect width="80" height="33.4144" fill="white"/>
</clipPath>
</defs>
</svg>
