<svg width="80" height="80" viewBox="0 0 80 80" fill="none" xmlns="http://www.w3.org/2000/svg">
<g id="Unofficial_JavaScript_logo_2" clip-path="url(#clip0_1_5075)">
<path id="Vector" d="M64 0H16C7.16344 0 0 7.16344 0 16V64C0 72.8366 7.16344 80 16 80H64C72.8366 80 80 72.8366 80 64V16C80 7.16344 72.8366 0 64 0Z" fill="#F7DF1E"/>
<path id="Vector_2" d="M53.74 62.5015C55.3514 65.1326 57.4479 67.0666 61.1559 67.0666C64.2708 67.0666 66.2606 65.5098 66.2606 63.3587C66.2606 60.7809 64.2162 59.8679 60.7876 58.3682L58.9083 57.5618C53.4835 55.2507 49.8797 52.3555 49.8797 46.2348C49.8797 40.5967 54.1756 36.3047 60.8892 36.3047C65.6689 36.3047 69.1051 37.9682 71.5813 42.3237L65.7273 46.0825C64.4384 43.7714 63.0479 42.8609 60.8892 42.8609C58.6873 42.8609 57.2918 44.2577 57.2918 46.0825C57.2918 48.3377 58.6886 49.2507 61.914 50.6475L63.7933 51.4526C70.1806 54.1917 73.787 56.984 73.787 63.2621C73.787 70.0304 68.4702 73.7383 61.3299 73.7383C54.3483 73.7383 49.8378 70.4114 47.6308 66.0507L53.74 62.5015ZM27.1838 63.1529C28.3648 65.2482 29.4391 67.0196 32.0219 67.0196C34.4918 67.0196 36.0499 66.0533 36.0499 62.2958V36.7339H43.5673V62.3974C43.5673 70.1815 39.0035 73.7244 32.3419 73.7244C26.3229 73.7244 22.8372 70.6094 21.0645 66.8577L27.1838 63.1529Z" fill="black"/>
</g>
<defs>
<clipPath id="clip0_1_5075">
<rect width="80" height="80" fill="white"/>
</clipPath>
</defs>
</svg>
