<svg width="80" height="22" viewBox="0 0 80 22" fill="none" xmlns="http://www.w3.org/2000/svg">
<g id="MongoDB_Logo" clip-path="url(#clip0_1_5128)">
<path id="Vector" d="M9.66725 8.65152C8.56641 3.79519 6.27199 2.50238 5.6867 1.58849C5.44535 1.1859 5.23155 0.767424 5.04676 0.335938C5.01584 0.767356 4.95904 1.03915 4.59234 1.36631C3.85605 2.02278 0.728987 4.57102 0.465822 10.0889C0.220633 15.2335 4.24792 18.4059 4.78 18.7338C5.18913 18.9351 5.68742 18.7381 5.93045 18.5533C7.87183 17.2209 10.5243 13.6689 9.66941 8.65152" fill="#10AA50"/>
<path id="Vector_2" d="M5.21267 15.9961C5.11128 17.2695 5.03866 18.0094 4.78125 18.737C4.78125 18.737 4.95022 19.9493 5.06886 21.2335H5.48878C5.58894 20.3292 5.74187 19.4315 5.9468 18.5451C5.40321 18.2776 5.23352 17.1135 5.21267 15.9961Z" fill="#B8C4C2"/>
<path id="Vector_3" d="M5.94632 18.544C5.39698 18.2902 5.23807 17.1016 5.21362 15.9943C5.34948 14.1678 5.38908 12.3353 5.33226 10.5045C5.3035 9.54392 5.34593 1.60726 5.0957 0.445312C5.26687 0.838854 5.46408 1.22055 5.68603 1.58785C6.27132 2.50246 8.56646 3.79527 9.66658 8.6516C10.5237 13.6604 7.88554 17.203 5.94632 18.544Z" fill="#12924F"/>
<path id="Vector_4" d="M78.3529 16.792C78.1177 16.792 77.8877 16.7224 77.6919 16.592C77.4961 16.4617 77.3433 16.2764 77.2525 16.0594C77.1618 15.8423 77.1372 15.6034 77.1819 15.3724C77.2266 15.1415 77.3386 14.9289 77.5038 14.7615C77.6689 14.594 77.8799 14.4791 78.1102 14.4312C78.3405 14.3833 78.5798 14.4046 78.7981 14.4924C79.0163 14.5801 79.2037 14.7304 79.3368 14.9244C79.4698 15.1184 79.5425 15.3474 79.5458 15.5826C79.5501 15.7412 79.5222 15.899 79.464 16.0466C79.4058 16.1941 79.3184 16.3284 79.207 16.4414C79.0956 16.5543 78.9625 16.6436 78.8157 16.7039C78.669 16.7641 78.5115 16.7941 78.3529 16.792ZM78.3529 14.5141C78.138 14.5127 77.9275 14.5751 77.7481 14.6934C77.5686 14.8117 77.4284 14.9806 77.345 15.1787C77.2616 15.3768 77.2389 15.5952 77.2798 15.8062C77.3206 16.0172 77.4232 16.2113 77.5744 16.364C77.7257 16.5166 77.9189 16.621 78.1295 16.6638C78.3401 16.7066 78.5587 16.6859 78.7575 16.6044C78.9564 16.5229 79.1266 16.3842 79.2466 16.2059C79.3665 16.0276 79.4309 15.8176 79.4315 15.6027C79.4343 15.4598 79.4083 15.3179 79.3553 15.1852C79.3022 15.0525 79.223 14.9318 79.1224 14.8303C79.0218 14.7288 78.9019 14.6485 78.7697 14.5942C78.6375 14.5399 78.4958 14.5126 78.3529 14.5141ZM78.6405 16.3534L78.3328 15.6897H78.0847V16.3534H77.9042V14.8434H78.3493C78.6808 14.8434 78.8188 14.9872 78.8188 15.2655C78.8188 15.487 78.7146 15.625 78.5204 15.6674L78.8383 16.3512L78.6405 16.3534ZM78.0919 15.5337H78.3529C78.5643 15.5337 78.6448 15.4618 78.6448 15.2691C78.6448 15.0764 78.5679 15.011 78.3299 15.011H78.0919V15.5337Z" fill="#FDFDFB"/>
<path id="Vector_5" d="M60.5998 15.7028C60.9227 15.961 61.5676 16.0674 62.1364 16.0674C62.8734 16.0674 63.596 15.9308 64.3021 15.293C65.0212 14.6394 65.5158 13.6392 65.5158 12.0422C65.5158 10.5078 64.932 9.26247 63.7341 8.53337C63.0582 8.10842 62.1824 7.94089 61.1837 7.94089C60.8961 7.94089 60.5998 7.95599 60.4316 8.03221C60.3626 8.08666 60.3138 8.16257 60.2928 8.24792C60.2626 8.52115 60.2626 10.602 60.2626 11.8323C60.2626 13.0935 60.2626 14.8522 60.2928 15.0679C60.3086 15.2506 60.4007 15.5712 60.5998 15.7057M57.5339 7.25781C57.7949 7.25781 58.7872 7.30311 59.2488 7.30311C60.1116 7.30311 60.7077 7.25781 62.3205 7.25781C63.6722 7.25781 64.8098 7.62236 65.623 8.32054C66.6066 9.17187 67.1329 10.3561 67.1329 11.7992C67.1329 13.8499 66.1982 15.0348 65.2584 15.7028C64.3237 16.4017 63.1078 16.7965 61.3757 16.7965C60.4539 16.7965 58.8713 16.7663 57.5504 16.7512H57.5231C57.4613 16.6297 57.636 16.1558 57.7438 16.1436C58.1034 16.1033 58.1983 16.0889 58.3637 16.0206C58.6426 15.9063 58.7081 15.7639 58.739 15.2628C58.785 14.3208 58.7699 13.197 58.7699 11.9207C58.7699 11.0097 58.785 9.23227 58.7548 8.66999C58.7081 8.19974 58.5096 8.07823 58.1077 7.98691C57.8226 7.92636 57.5346 7.88076 57.2448 7.85029C57.2146 7.75898 57.4505 7.34697 57.5274 7.25781" fill="#FDFDFB"/>
<path id="Vector_6" d="M70.9396 8.02545C70.8784 8.04055 70.8015 8.19298 70.8015 8.26848C70.7857 8.81566 70.7706 10.2429 70.7706 11.2302C70.7745 11.249 70.7839 11.2663 70.7975 11.2799C70.8112 11.2935 70.8286 11.3027 70.8475 11.3064C71.0467 11.3215 71.5385 11.3373 71.9534 11.3373C72.5372 11.3373 72.8752 11.2611 73.0593 11.1698C73.5511 10.9267 73.7783 10.3946 73.7783 9.81799C73.7783 8.49641 72.8565 7.99525 71.4896 7.99525C71.3048 7.99291 71.1201 8.003 70.9367 8.02545M74.424 14.1012C74.424 12.7646 73.4403 12.0053 71.6428 12.0053C71.5666 12.0053 70.9956 11.9902 70.8597 12.0204C70.8137 12.0355 70.7677 12.0657 70.7677 12.0966C70.7677 13.0536 70.7519 14.5873 70.7986 15.1949C70.8295 15.453 71.0143 15.8176 71.2437 15.924C71.4896 16.0606 72.0426 16.0908 72.4265 16.0908C73.4864 16.0908 74.424 15.499 74.424 14.1012ZM68.1641 7.28125C68.3029 7.28125 68.7113 7.32655 69.756 7.32655C70.739 7.32655 71.5378 7.29635 72.4884 7.29635C73.6712 7.29635 75.299 7.72201 75.299 9.48364C75.299 10.3465 74.685 11.0482 73.8861 11.3826C73.8401 11.3977 73.8401 11.4279 73.8861 11.443C75.0229 11.7306 76.0209 12.4302 76.0209 13.7669C76.0209 15.0734 75.207 15.8938 74.0242 16.4101C73.3052 16.7293 72.4114 16.835 71.5076 16.835C70.8166 16.835 68.9644 16.7631 67.9347 16.7746C67.8269 16.7293 68.0332 16.2425 68.1253 16.167C68.3612 16.1598 68.5952 16.1231 68.822 16.0577C69.1902 15.9671 69.234 15.8485 69.28 15.3013C69.311 14.8303 69.311 13.1442 69.311 11.9442C69.311 10.3033 69.3268 9.19531 69.311 8.64813C69.2959 8.22318 69.142 8.08584 68.8501 8.01035C68.62 7.96433 68.236 7.91903 67.929 7.87373C67.852 7.79751 68.0886 7.34165 68.1648 7.28125" fill="#FDFDFB"/>
<path id="Vector_7" d="M13.0678 16.7894C13.0282 16.6922 13.0122 16.587 13.021 16.4824C13.0176 16.4111 13.0337 16.3402 13.0678 16.2775C13.2664 16.2488 13.4633 16.2087 13.6574 16.1574C13.9292 16.0898 14.0313 15.9417 14.0471 15.5951C14.0917 14.7761 14.0945 13.2396 14.0787 12.1596V12.1279C14.0787 12.0115 14.0787 11.8533 13.9349 11.7418C13.6822 11.5832 13.4078 11.4621 13.1203 11.3823C12.9915 11.3442 12.9204 11.2766 12.924 11.1975C12.9276 11.1184 13.0088 11.0249 13.1763 10.9919C13.6214 10.9466 14.7877 10.6683 15.2457 10.4569C15.2929 10.5184 15.3147 10.5955 15.3068 10.6726C15.3068 10.7201 15.2996 10.7704 15.2946 10.8222C15.2817 10.9746 15.2673 11.1479 15.2673 11.3205C15.2701 11.3414 15.2787 11.3612 15.2921 11.3775C15.3056 11.3939 15.3233 11.4061 15.3433 11.4129C15.3634 11.4197 15.3849 11.4208 15.4055 11.416C15.4261 11.4112 15.445 11.4008 15.46 11.3859C16.3322 10.7021 17.1137 10.4583 17.5142 10.4583C18.1736 10.4583 18.687 10.7733 19.0846 11.4218C19.0937 11.4375 19.1067 11.4506 19.1223 11.4597C19.1379 11.4689 19.1557 11.474 19.1738 11.4743C19.1902 11.4742 19.2064 11.47 19.2209 11.4623C19.2355 11.4545 19.2479 11.4434 19.2572 11.4298C20.0589 10.8215 20.8534 10.4583 21.3855 10.4583C22.6424 10.4583 23.3938 11.3996 23.3938 12.975C23.3938 13.4279 23.3894 14.0024 23.3851 14.5381C23.3815 15.0084 23.3779 15.4491 23.3779 15.754C23.3779 15.8259 23.4772 16.033 23.626 16.074C23.8101 16.1639 24.0754 16.2099 24.4112 16.2674H24.4241C24.4493 16.358 24.3961 16.7096 24.345 16.7815C24.2616 16.7815 24.1466 16.7743 24.0028 16.7671C23.7418 16.7542 23.3837 16.7362 22.9674 16.7362C22.1319 16.7362 21.6954 16.752 21.2784 16.7793C21.2467 16.6751 21.2359 16.3386 21.2741 16.2681C21.4468 16.2411 21.6177 16.2039 21.786 16.1567C22.052 16.0689 22.129 15.9481 22.1455 15.5951C22.152 15.3442 22.2002 13.1331 22.1146 12.6082C22.0355 12.0639 21.6257 11.4269 20.729 11.4269C20.3961 11.4269 19.859 11.5657 19.3471 11.9539C19.3153 11.9899 19.2974 12.0361 19.2967 12.0841V12.0949C19.3571 12.3782 19.3571 12.7089 19.3571 13.2086C19.3571 13.4962 19.3571 13.7961 19.3535 14.0959C19.3499 14.7057 19.3471 15.2809 19.3571 15.7159C19.3571 16.0121 19.5362 16.0833 19.6807 16.1401C19.7591 16.1574 19.8209 16.1725 19.8835 16.1869C20.0035 16.2163 20.1286 16.2465 20.3149 16.276C20.3424 16.4023 20.34 16.5334 20.3077 16.6585C20.3001 16.7055 20.2816 16.7501 20.2538 16.7887C19.7893 16.7729 19.3125 16.7592 18.6244 16.7592C18.4159 16.7592 18.0758 16.7678 17.7753 16.7757C17.5315 16.7822 17.3014 16.7887 17.1705 16.7894C17.1352 16.7059 17.1194 16.6154 17.1245 16.5248C17.1172 16.4395 17.1339 16.3538 17.1727 16.2775L17.3575 16.2437C17.5186 16.2149 17.6581 16.1905 17.7889 16.1574C18.0161 16.0855 18.1017 15.9618 18.1182 15.672C18.1628 14.9961 18.1973 13.0483 18.1017 12.5608C17.9392 11.7785 17.4941 11.3816 16.778 11.3816C16.3588 11.3816 15.8288 11.5836 15.396 11.9079C15.3543 11.9485 15.3215 11.9972 15.2996 12.051C15.2777 12.1048 15.2672 12.1626 15.2687 12.2207C15.2687 12.4529 15.2687 12.729 15.2687 13.0253C15.2687 14.0032 15.2622 15.2205 15.286 15.7468C15.3004 15.9093 15.3579 16.102 15.662 16.1725C15.7289 16.1919 15.8439 16.2106 15.9777 16.2329C16.0546 16.2458 16.1387 16.2595 16.2257 16.2753C16.2534 16.4475 16.2393 16.6238 16.1848 16.7894C16.051 16.7894 15.8864 16.7808 15.698 16.7729C15.4104 16.7599 15.0508 16.7441 14.6446 16.7441C14.1643 16.7441 13.8299 16.7599 13.5617 16.7729C13.3813 16.7815 13.2252 16.7887 13.0692 16.7894" fill="#FDFDFB"/>
<path id="Vector_8" d="M28.487 11.1066C28.2275 11.1012 27.9722 11.1731 27.7536 11.313C27.2201 11.6373 26.9483 12.2851 26.9483 13.2371C26.9483 15.0189 27.8406 16.2635 29.1183 16.2635C29.4609 16.2744 29.7951 16.1561 30.0545 15.932C30.4471 15.6121 30.6556 14.9578 30.6556 14.0417C30.6556 12.2866 29.7834 11.1066 28.4856 11.1066M28.7315 16.9243C26.4234 16.9243 25.6016 15.231 25.6016 13.647C25.6016 12.5404 26.0538 11.6754 26.9461 11.075C27.5711 10.6881 28.2885 10.476 29.0234 10.4609C30.7843 10.4609 32.0146 11.7272 32.0146 13.5413C32.0146 14.7737 31.5235 15.7472 30.5938 16.3555C30.1473 16.6288 29.3714 16.9243 28.7315 16.9243Z" fill="#FDFDFB"/>
<path id="Vector_9" d="M51.9856 11.1066C51.7256 11.1007 51.4697 11.1726 51.2507 11.313C50.7172 11.6373 50.4454 12.2851 50.4454 13.2371C50.4454 15.0189 51.3377 16.2635 52.6155 16.2635C52.959 16.2751 53.2944 16.1567 53.5545 15.932C53.9471 15.6121 54.1549 14.9578 54.1549 14.0417C54.1549 12.2866 53.2834 11.1066 51.9856 11.1066ZM52.2315 16.9243C49.9234 16.9243 49.1016 15.231 49.1016 13.6477C49.1016 12.5397 49.5538 11.6754 50.4469 11.075C51.0715 10.6878 51.7887 10.4758 52.5234 10.4609C54.2843 10.4609 55.5146 11.7279 55.5146 13.5405C55.5146 14.7744 55.0235 15.7472 54.0938 16.3548C53.6473 16.6288 52.8714 16.9243 52.2315 16.9243Z" fill="#FDFDFB"/>
<path id="Vector_10" d="M44.2146 11.048C43.5035 11.048 43.0433 11.6095 43.0433 12.4788C43.0433 13.3481 43.4395 14.3814 44.5533 14.3814C44.7445 14.3814 45.0911 14.2965 45.2629 14.1074C45.5218 13.8694 45.6944 13.3776 45.6944 12.8585C45.6944 11.7246 45.1421 11.048 44.2182 11.048M44.1262 17.0475C43.9253 17.0453 43.7272 17.0949 43.5509 17.1913C42.9879 17.5509 42.7269 17.9104 42.7269 18.3281C42.7269 18.7193 42.8786 19.0306 43.2051 19.3067C43.6005 19.6418 44.1341 19.805 44.8351 19.805C46.2149 19.805 46.8333 19.063 46.8333 18.3281C46.8333 17.8162 46.5766 17.4732 46.0481 17.2791C45.6411 17.1302 44.9609 17.0483 44.1283 17.0483M44.2203 20.5715C43.392 20.5715 42.7952 20.3968 42.2854 20.0042C41.7893 19.6217 41.5664 19.0536 41.5664 18.661C41.5718 18.408 41.6683 18.1655 41.8382 17.978C41.982 17.814 42.3164 17.507 43.0893 16.9756C43.1013 16.9705 43.1115 16.962 43.1187 16.9512C43.1258 16.9403 43.1296 16.9275 43.1296 16.9145C43.1298 16.9 43.1251 16.8858 43.1162 16.8743C43.1073 16.8628 43.0948 16.8547 43.0807 16.8512C42.4443 16.6075 42.2524 16.2041 42.1941 15.9884C42.1941 15.9805 42.1941 15.9683 42.1876 15.9546C42.1697 15.8698 42.1524 15.7892 42.2682 15.7065C42.3573 15.6433 42.4997 15.5584 42.6521 15.4686C42.8673 15.3494 43.0737 15.2151 43.2698 15.0666C43.2803 15.0553 43.2881 15.0417 43.2926 15.0269C43.2971 15.0121 43.2981 14.9964 43.2956 14.9812C43.2931 14.9659 43.2872 14.9514 43.2782 14.9388C43.2692 14.9262 43.2575 14.9158 43.2439 14.9084C42.302 14.5921 41.8274 13.8924 41.8274 12.8232C41.8245 12.4898 41.9021 12.1606 42.0536 11.8636C42.205 11.5666 42.4259 11.3105 42.6974 11.117C43.0764 10.8171 44.0276 10.4569 44.6439 10.4569H44.6798C45.3133 10.472 45.6706 10.605 46.1653 10.7877C46.4467 10.8894 46.7449 10.9368 47.044 10.9272C47.5681 10.9272 47.7975 10.7611 47.9945 10.5676C48.0265 10.6548 48.0435 10.7466 48.0449 10.8394C48.0569 11.0605 47.9968 11.2795 47.8737 11.4636C47.7666 11.6124 47.5142 11.7202 47.2834 11.7202C47.2597 11.7202 47.2367 11.7202 47.2115 11.7167C47.0901 11.7081 46.9697 11.6881 46.852 11.657L46.793 11.6778C46.7743 11.7051 46.7866 11.7353 46.8017 11.7742C46.8054 11.7818 46.8082 11.7897 46.8103 11.7979C46.8524 11.9898 46.881 12.1844 46.8959 12.3803C46.8959 13.4984 46.4551 13.9852 45.9784 14.3461C45.5175 14.692 44.9701 14.9039 44.3965 14.9588C44.3843 14.9588 44.3246 14.9638 44.2124 14.9739C44.1405 14.9803 44.0471 14.989 44.0334 14.989H44.0197C43.9162 15.0177 43.6458 15.1464 43.6458 15.3859C43.6458 15.5843 43.7681 15.8309 44.3526 15.8755L44.7309 15.9021C45.5017 15.9561 46.4644 16.0229 46.9174 16.1761C47.2179 16.2817 47.4774 16.4795 47.6591 16.7411C47.8407 17.0028 47.9352 17.3151 47.9291 17.6335C47.9291 18.6366 47.2158 19.58 46.0215 20.1566C45.4583 20.4256 44.8416 20.564 44.2175 20.5614" fill="#FDFDFB"/>
<path id="Vector_11" d="M40.6869 16.2566C40.349 16.2113 40.1023 16.1653 39.8111 16.0287C39.754 15.9695 39.7164 15.8942 39.7033 15.813C39.6724 15.342 39.6724 13.9751 39.6724 13.0807C39.6724 12.3508 39.5501 11.7145 39.241 11.2579C38.8721 10.7409 38.3501 10.4375 37.6742 10.4375C37.0752 10.4375 36.2764 10.8473 35.6163 11.4096C35.6005 11.4247 35.4991 11.5211 35.5013 11.3715C35.5034 11.222 35.5264 10.9185 35.5408 10.7244C35.5472 10.6728 35.5414 10.6205 35.524 10.5715C35.5065 10.5226 35.4778 10.4784 35.4402 10.4425C35.0087 10.6582 33.7986 10.9459 33.3507 10.9897C33.0242 11.053 32.9415 11.3672 33.2903 11.4758H33.2953C33.5744 11.5528 33.8409 11.67 34.0862 11.8238C34.2243 11.9302 34.2092 12.0819 34.2092 12.2034C34.2243 13.2209 34.2243 14.7855 34.1783 15.6361C34.1632 15.9704 34.0704 16.092 33.8245 16.1531L33.8475 16.1452C33.6602 16.1921 33.4703 16.2276 33.2788 16.2516C33.2018 16.3271 33.2018 16.7678 33.2788 16.8592C33.4326 16.8592 34.2135 16.8139 34.8606 16.8139C35.7508 16.8139 36.2117 16.8592 36.4425 16.8592C36.5352 16.7527 36.5654 16.3429 36.5043 16.2516C36.2916 16.242 36.0804 16.2114 35.8737 16.1603C35.6285 16.0999 35.5667 15.9776 35.5516 15.7051C35.5214 14.9904 35.5214 13.4718 35.5214 12.4386C35.5214 12.1509 35.5976 12.0136 35.6897 11.9352C35.9967 11.662 36.5043 11.4801 36.9494 11.4801C37.3808 11.4801 37.6684 11.6167 37.8841 11.7986C38.1354 12.0179 38.2929 12.3252 38.3242 12.6571C38.3853 13.2324 38.3695 14.3893 38.3695 15.3895C38.3695 15.9366 38.3242 16.074 38.1243 16.1344C38.0323 16.1797 37.7864 16.2257 37.4944 16.2559C37.4024 16.3472 37.4326 16.7722 37.4944 16.8635C37.8935 16.8635 38.3573 16.8182 39.0303 16.8182C39.8751 16.8182 40.413 16.8635 40.628 16.8635C40.72 16.7571 40.7509 16.3602 40.6898 16.2559" fill="#FDFDFB"/>
</g>
<defs>
<clipPath id="clip0_1_5128">
<rect width="80" height="21.5709" fill="white"/>
</clipPath>
</defs>
</svg>
