<svg width="80" height="24" viewBox="0 0 80 24" fill="none" xmlns="http://www.w3.org/2000/svg">
<g id="MySQL_textlogo" clip-path="url(#clip0_1_5169)">
<path id="Vector" d="M32.6047 5.09034C31.3541 11.897 29.714 16.8379 27.6638 19.9132C26.0687 22.2915 24.3219 23.4806 22.4153 23.4806C21.9089 23.4806 21.2836 23.3274 20.5414 23.0234V21.3832C20.9043 21.4365 21.3287 21.4648 21.8187 21.4648C22.7064 21.4648 23.4219 21.2188 23.9714 20.7288C24.6233 20.1302 24.9493 19.4577 24.9493 18.7135C24.9493 18.205 24.6951 17.1594 24.1887 15.5767L20.8264 5.07968H23.8402L26.2594 12.9319C26.8027 14.7135 27.0303 15.9662 26.938 16.6633C28.2604 13.1164 29.1932 9.26207 29.7058 5.07968H32.617M19.2908 18.652H16.2155C16.1074 13.465 15.8075 8.56501 15.3195 3.99307H15.2925L10.618 18.652H8.28082L3.62687 3.99307H3.5994C3.25497 8.38049 3.03765 13.2805 2.94744 18.652H0.138672C0.319499 12.1118 0.772182 5.98176 1.4959 0.261719H5.30926L9.73768 13.7725H9.76495L14.2139 0.261719H17.8632C18.6607 6.96585 19.1323 13.0959 19.2758 18.652" fill="#00758F"/>
<path id="Vector_2" d="M73.6092 18.6621H64.8958V0.271899H67.8276V16.4069H73.6092V18.6621ZM51.6721 14.9923C50.9299 13.7929 50.5568 11.876 50.5568 9.21075C50.5568 4.57731 51.9612 2.26059 54.7597 2.26059C56.2276 2.26059 57.3019 2.81414 57.999 3.92125C58.7412 5.12061 59.1143 7.03754 59.1143 9.64129C59.1143 14.3157 57.7099 16.653 54.9114 16.653C53.4435 16.653 52.3692 16.0994 51.6721 14.9902M62.5996 19.1111L59.2373 17.4443C59.5366 17.1983 59.8237 16.9318 60.0799 16.6222C61.511 14.9349 62.2326 12.4398 62.2326 9.13899C62.2326 3.04991 59.8544 0.015625 55.0775 0.015625C52.7402 0.015625 50.9156 0.786498 49.6239 2.33235C48.1909 4.02171 47.4712 6.51474 47.4712 9.79505C47.4712 13.0344 48.1047 15.3921 49.3738 16.9092C50.5301 18.2706 52.2851 18.9533 54.6223 18.9533C55.4957 18.9533 56.2953 18.8454 57.021 18.6293L61.4085 21.1921L62.6058 19.1214M46.2042 13.5859C46.2042 15.1461 45.6322 16.4356 44.4923 17.4197C43.3524 18.4182 41.8271 18.9164 39.8999 18.9164C38.106 18.9164 36.3735 18.3403 34.6719 17.1983L35.4591 15.6176C36.9086 16.3434 38.2269 16.7063 39.3955 16.7063C40.5006 16.7063 41.3658 16.4602 41.9993 15.9723C42.6225 15.4823 42.9977 14.7975 42.9977 13.9303C42.9977 12.8375 42.2371 11.9047 40.845 11.1215C39.5575 10.4142 36.9906 8.92782 36.9906 8.92782C35.5965 7.90887 34.8994 6.81612 34.8994 5.01195C34.8994 3.52146 35.4202 2.32619 36.4617 1.40361C37.5052 0.48512 38.8399 0.0258759 40.5006 0.0258759C42.2043 0.0258759 43.7604 0.481019 45.1545 1.38926L44.4452 2.96791C43.2519 2.46151 42.0669 2.20523 40.9188 2.20523C39.9778 2.20523 39.252 2.4328 38.7456 2.88795C38.2372 3.33899 37.9235 3.92125 37.9235 4.63061C37.9235 5.71927 38.7005 6.66441 40.1377 7.45988C41.4396 8.16925 44.0741 9.67409 44.0741 9.67409C45.5072 10.691 46.2268 11.7858 46.2268 13.5695" fill="#F29111"/>
<path id="Vector_3" d="M75.2482 18.6615H75.734V16.7896H76.3696V16.4083H74.5859V16.7896H75.2461L75.2482 18.6615ZM78.959 18.6615H79.4182V16.4062H78.7294L78.1676 17.9418L77.5567 16.4062H76.8924V18.6615H77.3271V16.9455H77.3517L77.9913 18.6615H78.3214L78.9611 16.9455V18.6615" fill="#F29111"/>
</g>
<defs>
<clipPath id="clip0_1_5169">
<rect width="80" height="23.5772" fill="white"/>
</clipPath>
</defs>
</svg>
