<svg width="82" height="47" viewBox="0 0 82 47" fill="none" xmlns="http://www.w3.org/2000/svg">
<g id="Group 216349">
<g id="g3440">
<g id="Clip path group">
<mask id="mask0_1_5081" style="mask-type:luminance" maskUnits="userSpaceOnUse" x="2" y="3" width="78" height="42">
<g id="clipPath3444">
<path id="path3446" d="M2.12305 23.5776C2.12305 34.8716 19.5284 44.0273 40.9981 44.0273C62.4679 44.0273 79.8733 34.8716 79.8733 23.5776C79.8733 12.2837 62.4679 3.12781 40.9981 3.12781C19.5284 3.12781 2.12305 12.2837 2.12305 23.5776Z" fill="white"/>
</g>
</mask>
<g mask="url(#mask0_1_5081)">
<g id="g3442">
<g id="g3448">
<g id="g3450">
<path id="path3462" d="M2.12305 23.5776C2.12305 34.8716 19.5284 44.0273 40.9981 44.0273C62.4679 44.0273 79.8733 34.8716 79.8733 23.5776C79.8733 12.2837 62.4679 3.12781 40.9981 3.12781C19.5284 3.12781 2.12305 12.2837 2.12305 23.5776Z" fill="url(#paint0_radial_1_5081)"/>
</g>
</g>
</g>
</g>
</g>
</g>
<g id="g3464">
<g id="Clip path group_2">
<mask id="mask1_1_5081" style="mask-type:luminance" maskUnits="userSpaceOnUse" x="0" y="0" width="82" height="47">
<g id="clipPath3468">
<path id="path3470" d="M0.503906 0.798744H81.4936V46.3555H0.503906V0.798744Z" fill="white"/>
</g>
</mask>
<g mask="url(#mask1_1_5081)">
<g id="g3466">
<g id="g3472">
<path id="path3474" d="M40.9991 42.5078C61.6302 42.5078 78.3556 34.0319 78.3556 23.5763C78.3556 13.1209 61.6302 4.64483 40.9991 4.64483C20.3679 4.64483 3.64258 13.1209 3.64258 23.5763C3.64258 34.0319 20.3679 42.5078 40.9991 42.5078Z" fill="#777BB3"/>
</g>
</g>
</g>
</g>
</g>
<mask id="mask2_1_5081" style="mask-type:luminance" maskUnits="userSpaceOnUse" x="0" y="0" width="82" height="47">
<g id="clipPath3480">
<path id="path3482" d="M0.503906 0.798744H81.4936V46.3555H0.503906V0.798744Z" fill="white"/>
</g>
</mask>
<g mask="url(#mask2_1_5081)">
<g id="g3484">
<path id="path3486" d="M23.2458 25.9231C24.9423 25.9231 26.2087 25.6102 27.01 24.9935C27.8028 24.3832 28.3503 23.3256 28.6373 21.8505C28.9049 20.4717 28.8029 19.509 28.3344 18.9895C27.8554 18.4588 26.8197 18.1897 25.2561 18.1897H22.5451L21.0421 25.9231H23.2458ZM14.3787 35.4492C14.2529 35.4492 14.1334 35.393 14.0534 35.2957C13.9732 35.1985 13.9407 35.0706 13.9648 34.947L17.9479 14.4533C17.9864 14.2552 18.1601 14.1121 18.362 14.1121H26.9466C29.6446 14.1121 31.6527 14.8446 32.915 16.2897C34.184 17.7423 34.5758 19.7728 34.0796 22.3247C33.8777 23.3643 33.5304 24.3299 33.0474 25.1943C32.5639 26.0598 31.9248 26.8605 31.1477 27.5748C30.2174 28.4454 29.1646 29.0768 28.0211 29.4482C26.8959 29.8148 25.4507 30.0007 23.7259 30.0007H20.2498L19.2571 35.1078C19.2186 35.3061 19.0451 35.4492 18.8432 35.4492H14.3787Z" fill="black"/>
</g>
<g id="g3488">
<path id="path3490" d="M22.8928 18.6116H25.2561C27.1432 18.6116 27.7987 19.0257 28.0214 19.2724C28.3909 19.6821 28.4607 20.546 28.2232 21.7706C27.9563 23.1415 27.4616 24.1135 26.7527 24.6594C26.0269 25.2181 24.8469 25.5013 23.2458 25.5013H21.5538L22.8928 18.6116ZM26.9466 13.6903H18.3618C17.958 13.6903 17.6108 13.9766 17.5338 14.373L13.5507 34.8666C13.5026 35.1139 13.5675 35.3697 13.7277 35.5641C13.888 35.7586 14.1267 35.8711 14.3787 35.8711H18.843C19.247 35.8711 19.5941 35.5848 19.6712 35.1884L20.5975 30.4226H23.7259C25.495 30.4226 26.9843 30.2297 28.152 29.8493C29.353 29.4591 30.4578 28.7976 31.4358 27.8831C32.2445 27.139 32.9107 26.3038 33.4155 25.4004C33.9204 24.4967 34.2832 23.4889 34.4937 22.4051C35.016 19.719 34.5917 17.568 33.2326 16.0123C31.8867 14.4715 29.7717 13.6903 26.9466 13.6903ZM20.5303 26.345H23.2458C25.0457 26.345 26.3864 26.006 27.2673 25.3278C28.1484 24.6495 28.7426 23.5175 29.0514 21.9312C29.3468 20.4081 29.2122 19.3333 28.6477 18.7072C28.0824 18.0811 26.9521 17.7679 25.2561 17.7679H22.1973L20.5303 26.345ZM26.9466 14.534C29.5291 14.534 31.4131 15.2117 32.5973 16.5673C33.7814 17.9229 34.138 19.815 33.6655 22.2443C33.4711 23.245 33.1422 24.1599 32.6792 24.9888C32.2156 25.8182 31.6103 26.5767 30.8622 27.2644C29.9708 28.0986 28.9805 28.6931 27.8908 29.0471C26.8011 29.4022 25.4131 29.5789 23.7259 29.5789H19.9019L18.843 35.0275H14.3787L18.3618 14.534H26.9466Z" fill="white"/>
</g>
<g id="g3492">
<path id="path3494" d="M44.315 30C44.189 30 44.0696 29.9438 43.9896 29.8465C43.9093 29.7493 43.8769 29.6215 43.9009 29.4978L45.6629 20.4301C45.8305 19.5678 45.7891 18.9488 45.5466 18.6873C45.3981 18.5274 44.9521 18.2593 43.6333 18.2593H40.4413L38.226 29.6586C38.1875 29.8569 38.0138 30 37.8119 30H33.3828C33.2568 30 33.1374 29.9438 33.0573 29.8465C32.9771 29.7493 32.9447 29.6213 32.9687 29.4978L36.9518 9.00411C36.9903 8.806 37.164 8.66286 37.3659 8.66286H41.795C41.921 8.66286 42.0404 8.7191 42.1205 8.81626C42.2007 8.91356 42.2332 9.04137 42.2091 9.16511L41.2479 14.1114H44.6818C47.2978 14.1114 49.0717 14.5726 50.1049 15.5214C51.1581 16.4893 51.4867 18.037 51.0817 20.1219L49.2285 29.6586C49.19 29.8569 49.0165 30 48.8144 30H44.315Z" fill="black"/>
</g>
<g id="g3496">
<path id="path3498" d="M41.795 8.24109H37.3659C36.9619 8.24109 36.6148 8.52737 36.5377 8.92374L32.5546 29.4174C32.5065 29.6647 32.5715 29.9205 32.7317 30.1149C32.892 30.3094 33.1308 30.4219 33.3828 30.4219H37.8119C38.2157 30.4219 38.563 30.1356 38.6401 29.7392L40.789 18.6812H43.6333C44.9498 18.6812 45.2261 18.9624 45.2372 18.9745C45.3171 19.0604 45.4221 19.4583 45.2487 20.3498L43.4868 29.4174C43.4387 29.6647 43.5037 29.9205 43.664 30.1149C43.8242 30.3094 44.063 30.4219 44.315 30.4219H48.8144C49.2182 30.4219 49.5655 30.1356 49.6426 29.7392L51.4956 20.2025C51.9305 17.9639 51.5585 16.2847 50.3903 15.211C49.2756 14.1872 47.4083 13.6896 44.6818 13.6896H41.7594L42.6232 9.24573C42.6711 8.9984 42.6063 8.7425 42.446 8.54818C42.2857 8.35372 42.047 8.24109 41.795 8.24109ZM41.795 9.08474L40.7361 14.5333H44.6818C47.1645 14.5333 48.877 14.9666 49.8195 15.8322C50.7619 16.6983 51.0443 18.1017 50.6676 20.0417L48.8144 29.5782H44.315L46.0769 20.5108C46.2774 19.4793 46.2037 18.7757 45.8556 18.4005C45.5073 18.0254 44.7665 17.8375 43.6333 17.8375H40.0934L37.8119 29.5782H33.3828L37.3659 9.08474H41.795Z" fill="white"/>
</g>
<path id="path3502" d="M58.0896 25.9231C59.786 25.9231 61.0525 25.6102 61.8538 24.9935C62.6465 24.3833 63.194 23.3258 63.4812 21.8505C63.7487 20.4717 63.6468 19.509 63.1782 18.9895C62.6991 18.4588 61.6634 18.1897 60.0998 18.1897H57.3888L55.8858 25.9231H58.0896ZM49.2226 35.4492C49.0968 35.4492 48.9773 35.393 48.8972 35.2957C48.8171 35.1985 48.7845 35.0706 48.8085 34.947L52.7916 14.4533C52.8303 14.2552 53.0038 14.1121 53.2059 14.1121H61.7904C64.4885 14.1121 66.4965 14.8446 67.7589 16.2897C69.0278 17.7421 69.4196 19.7726 68.9235 22.3247C68.7213 23.3643 68.3742 24.3299 67.8912 25.1943C67.4076 26.0598 66.7686 26.8605 65.9914 27.5748C65.0612 28.4454 64.0083 29.0768 62.8649 29.4482C61.7396 29.8148 60.2944 30.0007 58.5696 30.0007H55.0934L54.1011 35.1078C54.0625 35.3061 53.8889 35.4492 53.6869 35.4492H49.2226Z" fill="black"/>
<path id="path3506" d="M57.7364 18.6116H60.0997C61.9868 18.6116 62.6423 19.0257 62.865 19.2724C63.2347 19.6821 63.3044 20.546 63.0668 21.7704C62.7999 23.1415 62.3051 24.1135 61.5963 24.6594C60.8705 25.2181 59.6905 25.5013 58.0894 25.5013H56.3975L57.7364 18.6116ZM61.7902 13.6903H53.2056C52.8018 13.6903 52.4546 13.9766 52.3775 14.373L48.3944 34.8666C48.3463 35.1139 48.4113 35.3697 48.5714 35.5641C48.7317 35.7586 48.9705 35.8711 49.2225 35.8711H53.6867C54.0906 35.8711 54.4379 35.5848 54.5149 35.1884L55.4411 30.4226H58.5695C60.3386 30.4226 61.8279 30.2297 62.9956 29.8493C64.1966 29.4591 65.3017 28.7974 66.2797 27.8828C67.0884 27.1388 67.7543 26.3038 68.2591 25.4004C68.764 24.4967 69.1268 23.4889 69.3373 22.4051C69.8597 19.7188 69.4353 17.5678 68.0762 16.0122C66.7303 14.4715 64.6154 13.6903 61.7902 13.6903ZM55.374 26.345H58.0894C59.8893 26.345 61.23 26.006 62.1109 25.3278C62.9921 24.6495 63.5862 23.5175 63.895 21.9312C64.1905 20.4081 64.056 19.3333 63.4913 18.7072C62.926 18.0811 61.7957 17.7679 60.0997 17.7679H57.0409L55.374 26.345ZM61.7902 14.534C64.3727 14.534 66.2567 15.2117 67.4409 16.5673C68.6251 17.9229 68.9816 19.815 68.5091 22.2443C68.3147 23.245 67.9858 24.1599 67.5228 24.9888C67.0592 25.8182 66.4539 26.5767 65.7058 27.2644C64.8144 28.0986 63.8241 28.6931 62.7344 29.0471C61.6447 29.4022 60.2567 29.5789 58.5695 29.5789H54.7455L53.6867 35.0275H49.2225L53.2056 14.534H61.7902Z" fill="white"/>
</g>
</g>
<defs>
<radialGradient id="paint0_radial_1_5081" cx="0" cy="0" r="1" gradientUnits="userSpaceOnUse" gradientTransform="translate(25.4638 10.3173) scale(51.0485 51.0485)">
<stop stop-color="#AEB2D5"/>
<stop offset="0.3" stop-color="#AEB2D5"/>
<stop offset="0.75" stop-color="#484C89"/>
<stop offset="1" stop-color="#484C89"/>
</radialGradient>
</defs>
</svg>
