<svg width="80" height="13" viewBox="0 0 80 13" fill="none" xmlns="http://www.w3.org/2000/svg">
<g id="RabbitMQ_logo 1" clip-path="url(#clip0_1_5258)">
<g id="Group">
<path id="Vector" d="M10.6572 4.98781C10.8072 4.98781 10.9511 5.04721 11.0575 5.15302C11.1638 5.25883 11.2239 5.40245 11.2246 5.55246V11.4618C11.2246 11.7729 10.973 12.0269 10.66 12.0269H0.584647C0.434769 12.0269 0.29103 11.9673 0.18505 11.8614C0.0790701 11.7554 0.0195313 11.6116 0.0195312 11.4618V0.745017C0.0195313 0.43432 0.271159 0.180366 0.585113 0.180366H1.80976C2.12046 0.180366 2.37441 0.431529 2.37441 0.745017V4.45618C2.38273 4.58849 2.43671 4.71382 2.52713 4.81078C2.61755 4.90773 2.73881 4.9703 2.87023 4.98781H3.78651C4.06418 4.96223 4.29535 4.73618 4.31069 4.45618V0.744552C4.31069 0.433855 4.56186 0.179901 4.87535 0.179901H6.1C6.41069 0.179901 6.66511 0.431064 6.66511 0.744552V4.41711C6.66511 4.70734 6.87814 4.95386 7.15814 4.98734H10.6577L10.6572 4.98781ZM9.04465 9.04037V7.88409C9.04465 7.57339 8.79348 7.31897 8.48 7.31897H7.25488C6.94418 7.31897 6.68976 7.5706 6.68976 7.88409V9.0399C6.68976 9.3506 6.94139 9.60455 7.25488 9.60455H8.47953C8.79023 9.60455 9.04418 9.35339 9.04418 9.0399L9.04465 9.04037ZM19.3795 12.0376L18.7939 9.30455C18.7215 8.93849 18.629 8.5767 18.5167 8.22083C18.4167 7.90502 18.2749 7.64037 18.0981 7.42502C17.9186 7.2092 17.6846 7.04734 17.3944 6.93432C17.1046 6.82409 16.7246 6.76734 16.2549 6.76734H15.0246V12.0371H13.6846V0.200831H16.6167C17.1019 0.200831 17.5716 0.251994 18.0288 0.351994C18.4833 0.452459 18.8865 0.619436 19.2358 0.850599C19.5871 1.08503 19.876 1.40142 20.0777 1.77246C20.2907 2.15525 20.3963 2.62502 20.3963 3.18502C20.3963 3.61385 20.3451 3.99385 20.2446 4.3199C20.1532 4.62951 19.9994 4.91713 19.7926 5.16502C19.5926 5.4013 19.3409 5.6013 19.0433 5.76316C18.7456 5.92502 18.3935 6.05618 17.993 6.15618V6.18967C18.3833 6.28967 18.6963 6.41804 18.9302 6.56967C19.1637 6.72362 19.3512 6.90595 19.4926 7.11944C19.6312 7.33246 19.7391 7.57618 19.8158 7.85106C19.893 8.12595 19.9646 8.44176 20.0367 8.79385L20.7195 12.0371L19.3795 12.0376ZM19.0535 3.32595C19.0535 2.83572 18.966 2.45292 18.7939 2.18316C18.6292 1.92069 18.3908 1.71263 18.1084 1.58502C17.8233 1.45665 17.5 1.37944 17.1377 1.35385C16.7669 1.32786 16.3954 1.31499 16.0237 1.31525H15.027V5.65525H15.7637C16.167 5.65525 16.5623 5.62734 16.9577 5.56827C17.3265 5.51726 17.6836 5.40237 18.013 5.22874C18.3225 5.06301 18.5829 4.81869 18.7679 4.52037C18.9553 4.21479 19.0535 3.81665 19.0535 3.32595ZM26.8921 12.0376V10.9562H26.8591C26.7463 11.1697 26.5927 11.359 26.407 11.5134C26.2167 11.6725 26.0088 11.8064 25.7828 11.9115C25.5552 12.017 25.3167 12.097 25.0716 12.1501C24.8364 12.2021 24.5963 12.2288 24.3553 12.2297C24.0037 12.2297 23.6902 12.1757 23.4181 12.0655C23.1575 11.9667 22.923 11.8095 22.7326 11.6059C22.542 11.3979 22.3978 11.1519 22.3093 10.8841C22.2116 10.6018 22.1628 10.2887 22.1628 9.94176C22.1628 9.62827 22.2242 9.35106 22.3474 9.10455C22.4707 8.85804 22.6326 8.64223 22.8381 8.45479C23.0506 8.26158 23.289 8.09907 23.5465 7.97199C23.8163 7.83572 24.0935 7.72781 24.3809 7.64548C24.9268 7.48779 25.4918 7.40563 26.06 7.4013C26.1991 7.4013 26.3349 7.39897 26.4633 7.39665C26.5916 7.39386 26.7251 7.37851 26.8665 7.35013V7.17572C26.8665 6.87525 26.8614 6.57479 26.8535 6.27432C26.8501 5.99786 26.7989 5.72406 26.7023 5.46502C26.6134 5.23062 26.4558 5.02849 26.2502 4.88502C26.0423 4.73851 25.7316 4.66409 25.326 4.66409C25.0846 4.66409 24.8688 4.68734 24.6763 4.73106C24.4975 4.76852 24.3283 4.84177 24.1786 4.94641C24.0355 5.05152 23.9192 5.18888 23.8391 5.34734C23.7521 5.51432 23.693 5.71944 23.6595 5.96362H22.3605C22.3651 5.54967 22.453 5.20083 22.6246 4.91339C22.7901 4.63137 23.0175 4.39071 23.2898 4.20967C23.5757 4.0232 23.8921 3.88844 24.2246 3.81153C24.5743 3.72715 24.9328 3.68498 25.2926 3.68595C26.2195 3.68595 26.9074 3.89618 27.3567 4.31479C27.8065 4.73339 28.0321 5.39851 28.0321 6.30781V12.0371H26.8926L26.8921 12.0376ZM26.1712 8.33385C25.9088 8.33385 25.6214 8.36223 25.313 8.4213C25.0116 8.47711 24.7195 8.57481 24.4451 8.71153C24.1753 8.84781 23.9521 9.02223 23.7702 9.24316C23.5879 9.46409 23.4977 9.73618 23.4977 10.0599C23.4977 10.4064 23.6033 10.6915 23.8112 10.9148C24.0219 11.138 24.2991 11.2487 24.6456 11.2487C24.8512 11.2487 25.0512 11.218 25.2409 11.1511C25.4296 11.0883 25.6086 10.9994 25.7726 10.8869C25.9395 10.773 26.0906 10.6374 26.2219 10.4836C26.3558 10.3269 26.466 10.1571 26.5484 9.97199C26.6149 9.82083 26.6688 9.68223 26.7126 9.55897C26.7959 9.31113 26.8426 9.05242 26.8512 8.79106C26.8563 8.65758 26.8591 8.50362 26.8591 8.33153H26.1707L26.1712 8.33385ZM36.8572 8.0413C36.8572 8.57804 36.8032 9.09711 36.693 9.5999C36.5823 10.1036 36.4 10.5501 36.1432 10.9408C35.8877 11.3304 35.5413 11.652 35.1339 11.878C34.7181 12.1115 34.1995 12.2297 33.5805 12.2297C33.0056 12.2297 32.5228 12.1399 32.1326 11.9627C31.7423 11.7832 31.4265 11.5366 31.1902 11.218C30.9544 10.8994 30.7823 10.525 30.6795 10.0906C30.5734 9.62734 30.5217 9.15328 30.5256 8.67804V0.200831H31.6884V5.22641H31.7298C31.7973 4.9909 31.9077 4.76985 32.0553 4.57432C32.1992 4.38726 32.3719 4.22429 32.567 4.09153C32.7651 3.95915 32.9824 3.85783 33.2112 3.79106C33.4479 3.72081 33.6935 3.68524 33.9405 3.68548C34.3307 3.68548 34.6749 3.74734 34.9698 3.87292C35.2651 3.99897 35.5219 4.1706 35.7349 4.3892C35.9507 4.60781 36.1302 4.85897 36.2744 5.14734C36.4217 5.43953 36.5371 5.74673 36.6186 6.06362C36.7033 6.38734 36.7623 6.71851 36.7981 7.05758C36.8391 7.39386 36.8572 7.72269 36.8572 8.0413ZM35.5167 8.0106C35.5154 7.79715 35.5061 7.58382 35.4888 7.37106C35.4673 7.12724 35.4338 6.88462 35.3884 6.64409C35.3419 6.39525 35.2753 6.15339 35.1907 5.91758C35.1123 5.69257 35.0026 5.47977 34.8646 5.28548C34.7355 5.10474 34.5703 4.95271 34.3795 4.83897C34.1893 4.72316 33.9684 4.66688 33.7167 4.66688C33.4498 4.66688 33.2112 4.72827 33.0056 4.85153C32.7972 4.9773 32.6151 5.14218 32.4693 5.33711C32.3177 5.53711 32.1916 5.76595 32.0916 6.02269C31.992 6.27817 31.9122 6.54097 31.853 6.80874C31.7957 7.0679 31.7538 7.33022 31.7274 7.59432C31.7032 7.82207 31.6901 8.05087 31.6884 8.2799C31.6884 8.59339 31.7116 8.92176 31.7553 9.26595C31.7991 9.61292 31.8888 9.93386 32.0195 10.2292C32.1507 10.5246 32.3381 10.7687 32.5823 10.9613C32.826 11.1539 33.147 11.2487 33.5498 11.2487C33.8172 11.2487 34.0535 11.1976 34.2586 11.0971C34.4587 10.9986 34.6369 10.8607 34.7823 10.6915C34.9288 10.5222 35.047 10.3241 35.1419 10.1008C35.2367 9.87758 35.3116 9.64641 35.3679 9.40781C35.4242 9.16874 35.4628 8.92734 35.486 8.68827C35.5065 8.44967 35.5167 8.22316 35.5167 8.0106ZM45.107 8.0413C45.107 8.57804 45.053 9.09711 44.9423 9.5999C44.8321 10.1036 44.6498 10.5501 44.3935 10.9408C44.1379 11.3304 43.7916 11.652 43.3842 11.878C42.9679 12.1115 42.4493 12.2297 41.8307 12.2297C41.2553 12.2297 40.7726 12.1399 40.3823 11.9627C39.9921 11.7832 39.6763 11.5366 39.44 11.218C39.2037 10.8994 39.0321 10.525 38.9293 10.0906C38.8232 9.62734 38.7715 9.15328 38.7753 8.67804V0.200831H39.9381V5.22641H39.9795C40.0471 4.9909 40.1575 4.76985 40.3051 4.57432C40.449 4.38726 40.6217 4.22429 40.8167 4.09153C41.0149 3.95907 41.2321 3.85774 41.4609 3.79106C41.6976 3.72081 41.9433 3.68524 42.1902 3.68548C42.5805 3.68548 42.9242 3.74734 43.2195 3.87292C43.5149 3.99897 43.7716 4.1706 43.9846 4.3892C44.2005 4.60781 44.38 4.85897 44.5242 5.14734C44.6715 5.43953 44.7869 5.74673 44.8684 6.06362C44.953 6.38734 45.0116 6.71851 45.0479 7.05758C45.0888 7.39386 45.107 7.72269 45.107 8.0413ZM43.7665 8.0106C43.7652 7.79715 43.7559 7.58382 43.7386 7.37106C43.717 7.12724 43.6835 6.88462 43.6381 6.64409C43.5916 6.39525 43.5251 6.15339 43.4405 5.91758C43.3621 5.69257 43.2523 5.47977 43.1144 5.28548C42.9853 5.10474 42.8201 4.95271 42.6293 4.83897C42.4391 4.72316 42.2181 4.66688 41.9665 4.66688C41.6995 4.66688 41.4609 4.72827 41.2553 4.85153C41.0468 4.97725 40.8645 5.14214 40.7186 5.33711C40.5674 5.53711 40.4414 5.76595 40.3414 6.02269C40.2417 6.27817 40.162 6.54097 40.1028 6.80874C40.0455 7.0679 40.0036 7.33022 39.9772 7.59432C39.9529 7.82207 39.9399 8.05087 39.9381 8.2799C39.9381 8.59339 39.9614 8.92176 40.0051 9.26595C40.0488 9.61292 40.1386 9.93386 40.2693 10.2292C40.4005 10.5246 40.5879 10.7687 40.8321 10.9613C41.0758 11.1539 41.3967 11.2487 41.7995 11.2487C42.067 11.2487 42.3032 11.1976 42.5084 11.0971C42.7085 10.9986 42.8867 10.8607 43.0321 10.6915C43.1786 10.5222 43.2967 10.3241 43.3916 10.1008C43.4863 9.8766 43.562 9.64476 43.6177 9.40781C43.674 9.16874 43.7126 8.92734 43.7358 8.68827C43.7563 8.44967 43.7665 8.22316 43.7665 8.0106ZM47.1665 1.74176V0.200366H48.7065V1.7413H47.166L47.1665 1.74176ZM47.3512 12.0371V3.8706H48.5139V12.0371H47.3512ZM53.1126 4.8492V9.87479C53.1126 10.3115 53.2181 10.6478 53.4312 10.8892C53.6442 11.1311 53.9833 11.2487 54.4479 11.2487C54.5858 11.2511 54.7236 11.2382 54.8586 11.2101C54.9903 11.1781 55.1199 11.1377 55.2465 11.0892V12.1376C55.0744 12.1655 54.9023 12.1887 54.7302 12.2041C54.5609 12.2222 54.3888 12.2297 54.2139 12.2297C53.8288 12.2297 53.4953 12.1939 53.213 12.1218C52.9302 12.0501 52.694 11.932 52.5042 11.765C52.3139 11.6008 52.173 11.385 52.0809 11.1153C51.9879 10.8455 51.9419 10.5143 51.9419 10.119V4.8492H50.6093V3.86781H51.9419V1.96781L53.1046 1.23106V3.86827H55.3079V4.84967L53.1126 4.8492Z" fill="#FF6600"/>
<path id="Vector_2" d="M66.739 12.0697V1.65571H66.7065L63.2218 12.0669H61.8995L58.4228 1.65571H58.3818V12.0669H57.1855V0.232922H59.1958L62.5539 10.3027H62.5874L65.9539 0.232922H67.9386V12.0697H66.739ZM74.5372 12.0734C73.9851 12.0734 73.4949 11.9911 73.0711 11.8269C72.6612 11.6711 72.2834 11.4413 71.9567 11.1487C71.6361 10.8578 71.3647 10.517 71.153 10.1394C70.9326 9.74847 70.7562 9.33432 70.6269 8.90455C70.4913 8.45817 70.3942 8.001 70.3367 7.53804C70.2785 7.07286 70.2493 6.60452 70.2493 6.13571C70.2493 5.64548 70.2748 5.15478 70.3288 4.66687C70.3799 4.18964 70.4692 3.71728 70.5958 3.25432C70.7214 2.7999 70.8911 2.38129 71.1018 1.98827C71.3088 1.60532 71.5807 1.26127 71.9056 0.971526C72.2288 0.683619 72.6139 0.457573 73.0558 0.293387C73.5 0.129201 74.0186 0.046875 74.6093 0.046875C75.1842 0.046875 75.6874 0.131526 76.1214 0.301294C76.534 0.459597 76.9124 0.69583 77.2358 0.997108C77.5465 1.29013 77.8032 1.63432 78.006 2.03199C78.2088 2.42734 78.3707 2.85106 78.4888 3.30083C78.6069 3.75013 78.6888 4.21711 78.7353 4.70269C78.7818 5.18827 78.8074 5.66594 78.8074 6.13571C78.8049 6.70417 78.7672 7.27193 78.6944 7.83571C78.6518 8.15946 78.5935 8.48093 78.5195 8.79897C78.4451 9.12269 78.3474 9.42827 78.2293 9.71339C78.1172 9.98754 77.9753 10.2485 77.806 10.4915C77.6543 10.7123 77.4596 10.9001 77.2335 11.0436L77.2665 11.0771L79.7037 10.9255V12.0734H74.5372ZM77.3511 6.11804C77.3511 5.80967 77.3409 5.47339 77.3232 5.10874C77.3029 4.741 77.261 4.37479 77.1976 4.01199C77.1337 3.65047 77.0401 3.29484 76.9176 2.94874C76.8025 2.62048 76.6369 2.31214 76.4269 2.03478C76.2246 1.77198 75.9692 1.55484 75.6772 1.39757C75.3818 1.2385 75.0251 1.15897 74.6121 1.15897C74.1749 1.15897 73.8028 1.23571 73.4921 1.39013C73.1887 1.53843 72.9202 1.74925 72.7042 2.00874C72.4835 2.27763 72.3074 2.58025 72.1828 2.90501C72.0507 3.24885 71.9493 3.60373 71.88 3.96548C71.8102 4.33571 71.7642 4.70548 71.7409 5.07525C71.7176 5.44734 71.7079 5.79432 71.7079 6.11804C71.7079 6.42594 71.7204 6.75757 71.7488 7.11432C71.7767 7.47153 71.826 7.82827 71.9004 8.18781C71.9721 8.54502 72.0749 8.89153 72.206 9.22501C72.3288 9.54565 72.5003 9.84545 72.7144 10.1139C72.9223 10.3706 73.1739 10.5762 73.4693 10.7301C73.7646 10.8846 74.1158 10.9613 74.5167 10.9613C74.9688 10.9613 75.3539 10.8897 75.6697 10.7432C75.9714 10.6068 76.2401 10.4071 76.4576 10.1576C76.6714 9.90537 76.8392 9.61759 76.9535 9.30734C77.0744 8.98641 77.1637 8.64501 77.2232 8.28548C77.2818 7.92594 77.3181 7.5585 77.3307 7.18874C77.3437 6.81385 77.3511 6.45711 77.3511 6.11804Z" fill="#B8B8B8"/>
</g>
</g>
<defs>
<clipPath id="clip0_1_5258">
<rect width="80" height="12.5581" fill="white"/>
</clipPath>
</defs>
</svg>
