<svg width="80" height="80" viewBox="0 0 80 80" fill="none" xmlns="http://www.w3.org/2000/svg">
<g id="React-icon" clip-path="url(#clip0_1_5329)">
<path id="Vector" d="M39.9996 48.0129C43.9376 48.0129 47.13 44.4248 47.13 39.9987C47.13 35.5725 43.9376 31.9844 39.9996 31.9844C36.0615 31.9844 32.8691 35.5725 32.8691 39.9987C32.8691 44.4248 36.0615 48.0129 39.9996 48.0129Z" fill="#61DAFB"/>
<g id="Group">
<path id="Vector_2" d="M39.9992 56.4171C61.13 56.4171 78.26 49.0659 78.26 39.9976C78.26 30.9294 61.13 23.5781 39.9992 23.5781C18.8683 23.5781 1.73828 30.9294 1.73828 39.9976C1.73828 49.0659 18.8683 56.4171 39.9992 56.4171Z" stroke="#61DAFB"/>
<path id="Vector_3" d="M27.347 48.2084C37.9124 68.7767 52.1417 81.7749 59.1289 77.2408C66.1161 72.7066 63.2154 52.3572 52.65 31.7889C42.0845 11.2207 27.8553 -1.77749 20.868 2.75662C13.8808 7.29074 16.7815 27.6402 27.347 48.2084Z" stroke="#61DAFB"/>
<path id="Vector_4" d="M27.3478 31.7913C16.7824 52.3595 13.8817 72.709 20.8689 77.2431C27.8561 81.7773 42.0854 68.779 52.6508 48.2108C63.2163 27.6426 66.117 7.29312 59.1297 2.759C52.1425 -1.77512 37.9133 11.2231 27.3478 31.7913Z" stroke="#61DAFB"/>
</g>
</g>
<defs>
<clipPath id="clip0_1_5329">
<rect width="80" height="80" fill="white"/>
</clipPath>
</defs>
</svg>
