<svg width="80" height="34" viewBox="0 0 80 34" fill="none" xmlns="http://www.w3.org/2000/svg">
<g id="Group 216325">
<path id="Vector" fill-rule="evenodd" clip-rule="evenodd" d="M35.6804 16.0203H49.6004V19.0903H35.6804V16.0203ZM33.4704 10.6703H44.3204V13.7403H33.4704H30.4004V10.6703V5.32031H33.4704V10.6703Z" fill="#2AA2D6"/>
<path id="Vector_2" fill-rule="evenodd" clip-rule="evenodd" d="M44.3204 3.07H30.4004V0H44.3204V3.07ZM46.5304 8.42H35.6804V5.35H46.5304H49.6004V8.42V13.77H46.5304V8.42Z" fill="#2AA2D6"/>
<path id="Vector_3" d="M2.9 33.5383C2.38 33.5383 1.87 33.4483 1.37 33.2683C0.87 33.0883 0.41 32.8183 0 32.4383L0.89 31.3783C1.2 31.6283 1.52 31.8383 1.85 31.9883C2.18 32.1383 2.54 32.2083 2.93 32.2083C3.24 32.2083 3.49 32.1483 3.66 32.0383C3.83 31.9283 3.92 31.7683 3.92 31.5683V31.5483C3.92 31.4483 3.9 31.3683 3.87 31.2883C3.83 31.2183 3.77 31.1483 3.66 31.0783C3.56 31.0083 3.42 30.9483 3.24 30.8783C3.06 30.8083 2.83 30.7483 2.54 30.6683C2.19 30.5883 1.88 30.4883 1.6 30.3883C1.32 30.2883 1.08 30.1583 0.89 29.9983C0.69 29.8483 0.54 29.6583 0.43 29.4283C0.32 29.1983 0.27 28.9183 0.27 28.5783V28.5583C0.27 28.2483 0.33 27.9683 0.44 27.7083C0.56 27.4583 0.72 27.2383 0.93 27.0583C1.14 26.8783 1.39 26.7383 1.68 26.6383C1.97 26.5383 2.29 26.4883 2.65 26.4883C3.15 26.4883 3.61 26.5583 4.03 26.7083C4.45 26.8583 4.84 27.0683 5.19 27.3483L4.41 28.4783C4.1 28.2683 3.8 28.1083 3.51 27.9883C3.22 27.8683 2.92 27.8083 2.63 27.8083C2.34 27.8083 2.12 27.8683 1.97 27.9783C1.82 28.0883 1.75 28.2383 1.75 28.3983V28.4183C1.75 28.5283 1.77 28.6283 1.81 28.7083C1.85 28.7883 1.93 28.8583 2.04 28.9283C2.15 28.9983 2.3 29.0583 2.5 29.1183C2.69 29.1783 2.94 29.2483 3.23 29.3283C3.58 29.4183 3.89 29.5183 4.16 29.6383C4.43 29.7483 4.66 29.8883 4.85 30.0483C5.04 30.2083 5.18 30.3983 5.27 30.6083C5.36 30.8183 5.41 31.0783 5.41 31.3783V31.3983C5.41 31.7383 5.35 32.0383 5.23 32.2983C5.11 32.5583 4.94 32.7883 4.72 32.9583C4.5 33.1383 4.24 33.2783 3.93 33.3683C3.61 33.4983 3.27 33.5383 2.9 33.5383ZM10.28 26.6083H11.78V29.5983L14.55 26.6083H16.37L13.59 29.5083L16.5 33.4483H14.69L12.57 30.5383L11.78 31.3583V33.4483H10.28V26.6083ZM24.9 30.5783L23.99 28.3583L23.08 30.5783H24.9ZM23.32 26.5583H24.71L27.64 33.4483H26.07L25.44 31.9183H22.55L21.92 33.4483H20.39L23.32 26.5583ZM32.26 26.6083H37.47V27.9683H33.77V29.4483H37.03V30.8083H33.77V33.4583H32.27V26.6083H32.26ZM42.24 26.6083H47.45V27.9683H43.75V29.4483H47.01V30.8083H43.75V33.4583H42.25V26.6083H42.24ZM55.55 32.1783C55.85 32.1783 56.13 32.1183 56.38 32.0083C56.63 31.8983 56.85 31.7483 57.03 31.5483C57.21 31.3483 57.35 31.1283 57.45 30.8683C57.55 30.6083 57.6 30.3383 57.6 30.0383V30.0183C57.6 29.7283 57.55 29.4483 57.45 29.1883C57.35 28.9283 57.21 28.6983 57.02 28.5083C56.83 28.3083 56.61 28.1583 56.36 28.0483C56.11 27.9383 55.83 27.8783 55.53 27.8783C55.22 27.8783 54.95 27.9383 54.69 28.0483C54.44 28.1583 54.22 28.3083 54.05 28.5083C53.87 28.7083 53.73 28.9283 53.63 29.1883C53.53 29.4483 53.48 29.7183 53.48 30.0183V30.0383C53.48 30.3283 53.53 30.6083 53.63 30.8683C53.73 31.1283 53.87 31.3583 54.06 31.5483C54.25 31.7483 54.46 31.8983 54.71 32.0083C54.97 32.1183 55.25 32.1783 55.55 32.1783ZM55.54 33.5583C55.01 33.5583 54.53 33.4683 54.08 33.2783C53.64 33.0883 53.25 32.8383 52.93 32.5283C52.61 32.2083 52.36 31.8383 52.18 31.4183C52 30.9883 51.91 30.5383 51.91 30.0483V30.0283C51.91 29.5383 52 29.0783 52.18 28.6583C52.36 28.2283 52.61 27.8583 52.94 27.5383C53.26 27.2183 53.65 26.9583 54.09 26.7783C54.54 26.5883 55.02 26.4983 55.55 26.4983C56.08 26.4983 56.56 26.5883 57.01 26.7783C57.45 26.9683 57.84 27.2183 58.16 27.5283C58.48 27.8483 58.73 28.2183 58.91 28.6383C59.09 29.0683 59.18 29.5183 59.18 30.0083V30.0283C59.18 30.5183 59.09 30.9783 58.91 31.3983C58.73 31.8283 58.48 32.1983 58.15 32.5183C57.83 32.8383 57.44 33.0983 57 33.2783C56.55 33.4683 56.06 33.5583 55.54 33.5583ZM64.08 26.6083H65.58V32.0883H69V33.4483H64.09V26.6083H64.08ZM76.37 32.0883C76.68 32.0883 76.96 32.0383 77.21 31.9383C77.46 31.8383 77.68 31.6983 77.86 31.5183C78.04 31.3383 78.18 31.1183 78.28 30.8783C78.38 30.6283 78.43 30.3583 78.43 30.0483V30.0283C78.43 29.7283 78.38 29.4483 78.28 29.1983C78.18 28.9483 78.04 28.7283 77.86 28.5483C77.68 28.3683 77.46 28.2283 77.21 28.1283C76.96 28.0283 76.68 27.9783 76.37 27.9783H75.2V32.0983H76.37V32.0883ZM73.7 26.6083H76.37C76.9 26.6083 77.39 26.6983 77.84 26.8683C78.29 27.0383 78.67 27.2783 78.99 27.5883C79.31 27.8983 79.56 28.2583 79.74 28.6683C79.92 29.0783 80 29.5283 80 30.0083V30.0283C80 30.5083 79.91 30.9583 79.74 31.3783C79.56 31.7983 79.32 32.1583 78.99 32.4583C78.67 32.7683 78.28 33.0083 77.84 33.1783C77.39 33.3583 76.9 33.4383 76.37 33.4383H73.7V26.6083Z" fill="white"/>
</g>
</svg>
