<svg width="80" height="23" viewBox="0 0 80 23" fill="none" xmlns="http://www.w3.org/2000/svg">
<g id="Symfony2">
<g id="g10">
<g id="g12">
<path id="circle14" d="M11.2519 20.8006C16.5266 20.8006 20.8026 16.5246 20.8026 11.2499C20.8026 5.97521 16.5266 1.69922 11.2519 1.69922C5.97716 1.69922 1.70117 5.97521 1.70117 11.2499C1.70117 16.5246 5.97716 20.8006 11.2519 20.8006Z" fill="white"/>
<path id="path16" d="M15.4277 5.23595C14.4577 5.26997 13.6102 5.8048 12.9805 6.54444C12.282 7.35553 11.8179 8.31801 11.4832 9.29989C10.8847 8.80929 10.423 8.17444 9.46292 7.8975C8.72022 7.68418 7.94111 7.77196 7.22426 8.3061C6.88438 8.55991 6.65065 8.94334 6.5394 9.30363C6.25089 10.2406 6.84186 11.0745 7.11063 11.3742L7.69751 12.0023C7.81863 12.1258 8.10952 12.4476 7.96765 12.9086C7.81353 13.4104 7.20929 13.7347 6.58907 13.5438C6.31213 13.4581 5.91407 13.2522 6.00355 12.9624C6.04029 12.8433 6.12535 12.7538 6.17128 12.6521C6.21313 12.5636 6.23286 12.4976 6.24545 12.4588C6.35874 12.0887 6.20394 11.6076 5.80792 11.4855C5.4381 11.3725 5.06046 11.4623 4.91382 11.9376C4.74711 12.4789 5.00602 13.4591 6.39174 13.8868C8.01528 14.3859 9.38875 13.5013 9.58336 12.3486C9.70618 11.6267 9.37957 11.0898 8.78248 10.3995L8.29596 9.8616C8.00099 9.56662 7.89994 9.0648 8.20478 8.67933C8.46233 8.35374 8.82875 8.21492 9.42992 8.37789C10.3067 8.61537 10.6976 9.22402 11.3494 9.71496C11.0803 10.5978 10.9041 11.4841 10.7452 12.2796L10.6476 12.8715C10.1811 15.3164 9.8256 16.6585 8.90087 17.4291C8.71477 17.5622 8.44804 17.7602 8.04692 17.7741C7.83632 17.7809 7.76862 17.636 7.76522 17.5727C7.76045 17.4251 7.88531 17.3574 7.96799 17.291C8.09149 17.2233 8.27827 17.1117 8.26568 16.7541C8.25173 16.3302 7.9013 15.9635 7.39505 15.9808C7.01503 15.9934 6.43699 16.3503 6.45877 17.0049C6.48122 17.6799 7.11063 18.1865 8.05985 18.1538C8.56746 18.1371 9.70039 17.9306 10.8167 16.6034C12.116 15.0816 12.4797 13.3373 12.7532 12.0608L13.058 10.3757C13.2278 10.3957 13.4088 10.4097 13.6061 10.4141C15.2246 10.4488 16.034 9.61017 16.0465 9.0005C16.0544 8.63136 15.8043 8.26834 15.4539 8.2765C15.2035 8.28365 14.8884 8.45036 14.8129 8.7967C14.7391 9.13693 15.328 9.44381 14.8677 9.74218C14.5407 9.95414 13.9545 10.1032 13.1291 9.98203L13.2795 9.15223C13.5854 7.57905 13.9637 5.64387 15.3971 5.59726C15.5015 5.59182 15.8839 5.60202 15.8928 5.85447C15.8951 5.93884 15.8744 5.96062 15.7757 6.15386C15.6747 6.30424 15.6369 6.4325 15.6413 6.58016C15.6556 6.98162 15.9608 7.24563 16.4028 7.22998C16.9937 7.21059 17.1638 6.63528 17.1543 6.33928C17.1298 5.64353 16.397 5.20465 15.4277 5.23595Z" fill="#1F1F21"/>
</g>
<g id="g18">
<g id="g20">
<path id="path22" d="M59.6081 8.56244C61.8107 8.56244 63.2869 10.1537 63.2869 12.3549C63.2869 14.4292 61.7818 16.147 59.6081 16.147C57.4212 16.147 55.916 14.4292 55.916 12.3549C55.916 10.1537 57.3919 8.56244 59.6081 8.56244ZM59.6081 15.0692C61.1707 15.0692 61.8661 13.6484 61.8661 12.3549C61.8661 10.9777 61.0282 9.64264 59.6081 9.64264C58.1737 9.64264 57.3354 10.9777 57.3354 12.3549C57.3354 13.6484 58.0319 15.0692 59.6081 15.0692Z" fill="white"/>
</g>
<path id="path24" d="M55.7328 9.23717V8.7333H53.8147V8.04469C53.8147 7.06452 53.9572 6.32488 55.1068 6.32488C55.1279 6.32488 55.1504 6.32692 55.1725 6.32794C55.1749 6.32794 55.1742 6.32419 55.1769 6.32419C55.496 6.34733 55.7621 6.08774 55.7798 5.76861L55.8029 5.33109C55.5331 5.28822 55.2484 5.24603 54.9081 5.24603C52.9338 5.24603 52.4796 6.39666 52.4796 8.15833V8.7333H50.7734V9.29569C50.8173 9.58726 51.067 9.81214 51.3715 9.81214C51.3729 9.81214 51.3746 9.8135 51.3763 9.8135H52.4796V15.978H53.2145C53.2162 15.978 53.2152 15.978 53.2169 15.978C53.5231 15.978 53.7728 15.7473 53.8143 15.4537V9.8135H55.15C55.4644 9.80296 55.7172 9.55153 55.7328 9.23717Z" fill="white"/>
<path id="path26" d="M37.9467 8.73499C37.9447 8.73499 37.943 8.7367 37.9396 8.7367C37.6586 8.7367 37.3861 8.92994 37.267 9.19157L35.4301 14.7297H35.4015L33.6048 9.19429C33.4871 8.9313 33.2136 8.73635 32.9305 8.73635C32.9271 8.73635 32.9261 8.73465 32.9234 8.73465H31.9922L34.4496 15.4962C34.5353 15.7381 34.7061 16.1076 34.7061 16.2631C34.7061 16.406 34.3081 18.0526 33.1142 18.0526C33.085 18.0526 33.055 18.0492 33.0261 18.0472C32.7216 18.0305 32.4916 18.2432 32.4409 18.5708L32.4045 19.0332C32.6461 19.0757 32.8883 19.1328 33.3143 19.1328C35.0753 19.1328 35.6009 17.5267 36.0987 16.1352L38.7684 8.73431H37.9467V8.73499Z" fill="white"/>
<path id="path28" d="M29.4596 10.2058C28.3573 9.64174 27.1505 9.25831 27.1294 8.12334C27.1328 6.91793 28.2406 6.60118 29.0939 6.60221C29.098 6.60152 29.1014 6.60153 29.1034 6.60153C29.4742 6.60153 29.7706 6.63827 30.0601 6.70189C30.0638 6.70189 30.0632 6.69713 30.0676 6.69713C30.3738 6.71958 30.6307 6.48041 30.6664 6.17897L30.6909 5.74111C30.1312 5.6023 29.5464 5.53119 29.0374 5.53119C27.1815 5.54276 25.8033 6.47666 25.7988 8.25908C25.8009 9.8173 26.8508 10.4212 27.981 10.9683C29.0888 11.5011 30.3017 11.9406 30.3122 13.227C30.3061 14.5685 29.0112 15.0628 28.1188 15.0649C27.5969 15.0628 27.0304 14.9332 26.5528 14.7825C26.2537 14.7332 26.0084 14.9972 25.9693 15.3466L25.9291 15.7365C26.5854 15.9484 27.258 16.1338 27.9347 16.1338C27.9347 16.1338 27.9354 16.1338 27.9361 16.1338C27.9378 16.1338 27.9402 16.1338 27.9422 16.1338C30.0217 16.1185 31.6377 15.2894 31.6442 13.1362C31.6418 11.4752 30.584 10.7774 29.4596 10.2058Z" fill="white"/>
<path id="path30" d="M49.6535 15.978C49.6545 15.978 49.6545 15.978 49.6552 15.978C49.9434 15.978 50.1839 15.7752 50.2441 15.5054V11.3329C50.2441 9.756 49.578 8.5625 47.7302 8.5625C47.077 8.5625 45.9835 8.93266 45.4861 9.96931C45.1031 8.98914 44.2647 8.5625 43.4275 8.5625C42.3615 8.5625 41.6369 8.94593 41.1259 9.78457H41.0973V9.33412C41.0932 9.00241 40.8248 8.73465 40.4927 8.73465C40.4897 8.73465 40.4883 8.73295 40.4863 8.73295H39.8477V15.9776H40.5703C40.5713 15.9776 40.5713 15.9776 40.572 15.9776C40.9068 15.9776 41.1776 15.7058 41.1776 15.3717C41.1776 15.3625 41.1806 15.3591 41.1837 15.353V12.3267C41.1837 10.9777 41.723 9.6427 43.0862 9.6427C44.1651 9.6427 44.3797 10.7644 44.3797 11.6595V15.9773H45.1122C45.1129 15.9773 45.1129 15.9773 45.1143 15.9773C45.4307 15.9773 45.6855 15.734 45.7137 15.4251V12.3267C45.7137 10.9777 46.254 9.6427 47.6173 9.6427C48.6968 9.6427 48.9101 10.7644 48.9101 11.6595V15.9773H49.6535V15.978Z" fill="white"/>
<path id="path32" d="M70.2888 15.978C70.2895 15.978 70.2895 15.978 70.2905 15.978C70.6161 15.978 70.8784 15.7208 70.8937 15.3986V11.6738C70.8937 9.7281 70.0547 8.5625 68.1798 8.5625C67.1714 8.5625 66.2061 9.06024 65.8074 9.8846H65.7795V9.34331C65.7795 9.34263 65.7781 9.34263 65.7781 9.34127C65.7781 9.00547 65.5063 8.73465 65.1729 8.73465C65.1692 8.73465 65.1685 8.73295 65.1661 8.73295H64.4863V15.9776H65.2202C65.2202 15.9776 65.2202 15.9776 65.2215 15.9776C65.5393 15.9776 65.7969 15.7303 65.8214 15.4186V12.6251C65.8214 10.8641 66.5038 9.6427 68.0236 9.6427C69.1895 9.71313 69.557 10.5365 69.557 12.2274V15.9773H70.2888V15.978Z" fill="white"/>
<path id="path34" d="M77.4767 8.73499C77.4733 8.73499 77.472 8.7367 77.4692 8.7367C77.1879 8.7367 76.915 8.92994 76.7963 9.19157L74.9601 14.7297H74.9302L73.1331 9.19429C73.0154 8.9313 72.7419 8.73635 72.4595 8.73635C72.4568 8.73635 72.4551 8.73465 72.4527 8.73465H71.5215L73.9792 15.4962C74.0643 15.7381 74.2361 16.1076 74.2361 16.2631C74.2361 16.406 73.8377 18.0526 72.6435 18.0526C72.6146 18.0526 72.5854 18.0492 72.5554 18.0472C72.2509 18.0305 72.022 18.2432 71.9696 18.5708L71.9338 19.0332C72.1751 19.0757 72.4176 19.1328 72.8439 19.1328C74.6049 19.1328 75.1302 17.5267 75.6283 16.1352L78.2987 8.73431H77.4767V8.73499Z" fill="white"/>
</g>
</g>
</g>
</svg>
