<svg width="80" height="80" viewBox="0 0 80 80" fill="none" xmlns="http://www.w3.org/2000/svg">
<g id="typescript">
<path id="Vector" d="M16 80C7.16344 80 0 72.8366 0 64V16C0 7.16344 7.16344 0 16 0H64C72.8366 0 80 7.16344 80 16V64C80 72.8366 72.8366 80 64 80H16Z" fill="#007ACC"/>
<path id="Vector_2" d="M17.5391 40.1409V43.401H27.9391V73.001H35.3191V43.401H45.7191V40.201C45.7191 38.401 45.7191 36.941 45.6391 36.901C45.6391 36.841 39.2991 36.821 31.5991 36.821L17.5991 36.8809V40.161L17.5391 40.1409ZM64.2791 36.801C66.3191 37.281 67.8791 38.201 69.2791 39.661C70.0191 40.461 71.1191 41.861 71.1991 42.221C71.1991 42.341 67.7391 44.6809 65.6391 45.9809C65.5591 46.0409 65.2391 45.7009 64.9191 45.1809C63.8791 43.7009 62.8191 43.061 61.1591 42.9409C58.7591 42.781 57.1591 44.041 57.1591 46.141C57.1591 46.781 57.2791 47.141 57.5191 47.661C58.0591 48.761 59.0591 49.4209 62.1591 50.7809C67.8791 53.2409 70.3591 54.861 71.8591 57.181C73.5591 59.781 73.9391 63.861 72.7991 66.921C71.5191 70.261 68.3991 72.521 63.9391 73.261C62.5391 73.5009 59.3391 73.461 57.8391 73.201C54.6391 72.601 51.5791 71.001 49.6991 68.941C48.9591 68.141 47.5391 66.0009 47.6191 65.861L48.3791 65.381L51.3791 63.641L53.6391 62.321L54.1591 63.021C54.8191 64.061 56.2991 65.461 57.1591 65.941C59.7591 67.281 63.2391 67.101 64.9591 65.541C65.6991 64.861 66.0191 64.141 66.0191 63.141C66.0191 62.221 65.8791 61.801 65.4191 61.101C64.7791 60.221 63.4991 59.501 59.8991 57.901C55.7591 56.141 53.9991 55.021 52.3591 53.301C51.4191 52.261 50.5591 50.641 50.1591 49.301C49.8591 48.141 49.7591 45.301 50.0391 44.161C50.8991 40.161 53.9191 37.361 58.2391 36.561C59.6391 36.281 62.9391 36.401 64.3191 36.761L64.2791 36.801Z" fill="white"/>
</g>
</svg>
