<svg width="80" height="48" viewBox="0 0 80 48" fill="none" xmlns="http://www.w3.org/2000/svg">
<g id="Amazon_Web_Services_Logo 1" clip-path="url(#clip0_1_5278)">
<g id="Group">
<path id="Vector" d="M22.7373 17.511C22.7373 18.4869 22.8425 19.2781 23.0267 19.8583C23.2373 20.4385 23.5004 21.0715 23.8688 21.7572C24.0004 21.9682 24.053 22.1792 24.053 22.3638C24.053 22.6275 23.8951 22.8913 23.553 23.155L21.8951 24.2627C21.6583 24.4209 21.4215 24.5001 21.2109 24.5001C20.9478 24.5001 20.6846 24.3682 20.4215 24.1308C20.053 23.7352 19.7373 23.3132 19.4741 22.8913C19.2109 22.4429 18.9478 21.9418 18.6583 21.3352C16.6057 23.7616 14.0267 24.9748 10.9215 24.9748C8.71094 24.9748 6.94778 24.3418 5.65831 23.0759C4.36883 21.8099 3.71094 20.122 3.71094 18.0121C3.71094 15.7704 4.50041 13.9506 6.10567 12.5792C7.71094 11.2077 9.84252 10.522 12.553 10.522C13.4478 10.522 14.3688 10.6012 15.3425 10.733C16.3162 10.8649 17.3162 11.0759 18.3688 11.3132V9.38796C18.3688 7.38357 17.9478 5.98577 17.132 5.16818C16.2899 4.3506 14.8688 3.955 12.8425 3.955C11.9215 3.955 10.9741 4.06049 10.0004 4.29785C9.02673 4.53522 8.07936 4.82533 7.15831 5.19456C6.73725 5.37917 6.42146 5.48467 6.23725 5.53741C6.05304 5.59016 5.92146 5.61654 5.8162 5.61654C5.44778 5.61654 5.26357 5.3528 5.26357 4.79895V3.50664C5.26357 3.08467 5.3162 2.76818 5.44778 2.58357C5.57936 2.39895 5.8162 2.21434 6.18462 2.02972C7.10567 1.555 8.21094 1.15939 9.50041 0.842909C10.7899 0.500052 12.1583 0.34181 13.6057 0.34181C16.7373 0.34181 19.0267 1.0539 20.5004 2.47807C21.9478 3.90225 22.6846 6.06489 22.6846 8.96599V17.511H22.7373ZM12.053 21.5198C12.9215 21.5198 13.8162 21.3616 14.7636 21.0451C15.7109 20.7286 16.553 20.1484 17.2636 19.3572C17.6846 18.8561 18.0004 18.3022 18.1583 17.6693C18.3162 17.0363 18.4215 16.2715 18.4215 15.3748V14.2671C17.6583 14.0825 16.8425 13.9242 16.0004 13.8187C15.1583 13.7132 14.3425 13.6605 13.5267 13.6605C11.7636 13.6605 10.4741 14.0033 9.60567 14.7154C8.73725 15.4275 8.3162 16.4297 8.3162 17.7484C8.3162 18.988 8.63199 19.911 9.28988 20.544C9.92146 21.2034 10.8425 21.5198 12.053 21.5198ZM33.1846 24.3682C32.7109 24.3682 32.3951 24.2891 32.1846 24.1044C31.9741 23.9462 31.7899 23.577 31.632 23.0759L25.4478 2.68906C25.2899 2.16159 25.2109 1.81873 25.2109 1.63412C25.2109 1.21214 25.4215 0.974777 25.8425 0.974777H28.4215C28.9215 0.974777 29.2636 1.0539 29.4478 1.23851C29.6583 1.39675 29.8162 1.76599 29.9741 2.26708L34.3951 19.7264L38.5004 2.26708C38.632 1.73961 38.7899 1.39675 39.0004 1.23851C39.2109 1.08027 39.5794 0.974777 40.053 0.974777H42.1583C42.6583 0.974777 43.0004 1.0539 43.2109 1.23851C43.4215 1.39675 43.6057 1.76599 43.7109 2.26708L47.8688 19.9374L52.4215 2.26708C52.5794 1.73961 52.7636 1.39675 52.9478 1.23851C53.1583 1.08027 53.5004 0.974777 53.9741 0.974777H56.4215C56.8425 0.974777 57.0793 1.18577 57.0793 1.63412C57.0793 1.76599 57.053 1.89785 57.0267 2.0561C57.0004 2.21434 56.9478 2.42533 56.8425 2.71544L50.5004 23.1023C50.3425 23.6297 50.1583 23.9726 49.9478 24.1308C49.7372 24.2891 49.3951 24.3946 48.9478 24.3946H46.6846C46.1846 24.3946 45.8425 24.3154 45.632 24.1308C45.4215 23.9462 45.2372 23.6033 45.132 23.0759L41.053 6.06489L37.0004 23.0495C36.8688 23.577 36.7109 23.9198 36.5004 24.1044C36.2899 24.2891 35.9215 24.3682 35.4478 24.3682H33.1846ZM67.0004 25.0803C65.632 25.0803 64.2636 24.922 62.9478 24.6055C61.632 24.2891 60.6057 23.9462 59.9215 23.5506C59.5004 23.3132 59.2109 23.0495 59.1057 22.8121C59.0004 22.5748 58.9478 22.311 58.9478 22.0737V20.7286C58.9478 20.1748 59.1583 19.911 59.553 19.911C59.7109 19.911 59.8688 19.9374 60.0267 19.9902C60.1846 20.0429 60.4215 20.1484 60.6846 20.2539C61.5794 20.6495 62.553 20.966 63.5794 21.177C64.632 21.388 65.6583 21.4935 66.7109 21.4935C68.3688 21.4935 69.6583 21.2033 70.553 20.6231C71.4478 20.0429 71.9215 19.199 71.9215 18.1176C71.9215 17.3792 71.6846 16.7726 71.2109 16.2715C70.7373 15.7704 69.8425 15.322 68.553 14.9001L64.7372 13.7132C62.8162 13.1066 61.3951 12.2099 60.5267 11.0231C59.6583 9.86269 59.2109 8.57038 59.2109 7.19895C59.2109 6.09126 59.4478 5.11544 59.9215 4.27148C60.3951 3.42752 61.0267 2.68906 61.8162 2.10884C62.6057 1.50225 63.5004 1.0539 64.553 0.737414C65.6057 0.420931 66.7109 0.289062 67.8688 0.289062C68.4478 0.289062 69.053 0.315436 69.632 0.394557C70.2373 0.473678 70.7899 0.579172 71.3425 0.684667C71.8688 0.816535 72.3688 0.948403 72.8425 1.10664C73.3162 1.26489 73.6846 1.42313 73.9478 1.58137C74.3162 1.79236 74.5794 2.00335 74.7372 2.24071C74.8951 2.4517 74.9741 2.74181 74.9741 3.11104V4.3506C74.9741 4.90445 74.7636 5.19456 74.3688 5.19456C74.1583 5.19456 73.8162 5.08906 73.3688 4.87807C71.8688 4.19236 70.1846 3.8495 68.3162 3.8495C66.8162 3.8495 65.632 4.08686 64.8162 4.58796C64.0004 5.08906 63.5794 5.8539 63.5794 6.93522C63.5794 7.67368 63.8425 8.30665 64.3688 8.80774C64.8951 9.30884 65.8688 9.80994 67.2636 10.2583L71.0004 11.4451C72.8951 12.0517 74.2636 12.8957 75.0793 13.977C75.8951 15.0583 76.2899 16.2979 76.2899 17.6693C76.2899 18.8034 76.053 19.8319 75.6057 20.7286C75.132 21.6253 74.5004 22.4165 73.6846 23.0495C72.8688 23.7088 71.8951 24.1836 70.7636 24.5264C69.5794 24.8957 68.3425 25.0803 67.0004 25.0803Z" fill="white"/>
<g id="Group_2">
<path id="Vector_2" fill-rule="evenodd" clip-rule="evenodd" d="M71.9742 37.8985C63.3163 44.3072 50.7373 47.7094 39.9216 47.7094C24.7637 47.7094 11.1058 42.0919 0.789984 32.7556C-0.0258055 32.0171 0.711037 31.0149 1.68472 31.5952C12.8426 38.0831 26.6058 42.0127 40.8426 42.0127C50.4479 42.0127 61.0005 40.0084 70.711 35.8941C72.1584 35.2347 73.3952 36.8435 71.9742 37.8985Z" fill="#FF9900"/>
<path id="Vector_3" fill-rule="evenodd" clip-rule="evenodd" d="M75.58 33.7833C74.4747 32.3591 68.2642 33.0976 65.4484 33.4404C64.6063 33.5459 64.4747 32.8075 65.2379 32.2536C70.1853 28.7723 78.3168 29.7745 79.2642 30.9349C80.2116 32.1217 79.0011 40.2712 74.3695 44.1745C73.6589 44.7811 72.9747 44.4646 73.2905 43.6734C74.3432 41.0624 76.6853 35.1811 75.58 33.7833Z" fill="#FF9900"/>
</g>
</g>
</g>
<defs>
<clipPath id="clip0_1_5278">
<rect width="80" height="48" fill="white"/>
</clipPath>
</defs>
</svg>
