<svg width="80" height="81" viewBox="0 0 80 81" fill="none" xmlns="http://www.w3.org/2000/svg">
<g id="Group 216322">
<g id="#000000ff">
<path id="Vector" d="M16.9109 7.22302C22.8485 3.02788 29.949 0.503447 37.2032 0.00390625C37.2032 3.74628 37.2032 7.48699 37.2032 11.2294C31.6197 11.7607 26.21 13.9626 21.8495 17.4912C15.8516 22.2844 11.9322 29.5603 11.2271 37.2055C7.48475 37.2071 3.74238 37.2071 0 37.2055C0.422688 31.1542 2.23707 25.2065 5.27441 19.9555C8.16807 14.935 12.1694 10.5561 16.9109 7.22302Z" fill="black"/>
<path id="Vector_2" d="M42.7985 0C49.1689 0.444407 55.4274 2.43589 60.8772 5.76894C65.9662 8.86643 70.3451 13.1184 73.5946 18.1138C77.3053 23.7958 79.529 30.4335 80.0001 37.2049C76.2577 37.2066 72.5154 37.2066 68.773 37.2049C68.2033 31.192 65.6872 25.3847 61.6808 20.8638C56.906 15.4139 50.011 11.8988 42.7969 11.2271C42.7969 7.48475 42.7969 3.74238 42.7985 0Z" fill="black"/>
<path id="Vector_3" d="M0 42.7981C3.74238 42.7965 7.48475 42.7965 11.2271 42.7981C11.7768 48.5921 14.1308 54.199 17.8916 58.6414C22.6815 64.3669 29.7703 68.0842 37.2032 68.7742C37.2032 72.5149 37.2032 76.2573 37.2032 79.9997C31.157 79.577 25.2109 77.7643 19.9632 74.7303C14.2745 71.4574 9.41776 66.7594 5.95606 61.1826C2.51274 55.6609 0.45109 49.2905 0 42.7981Z" fill="black"/>
<path id="Vector_4" d="M68.773 42.7981C72.5154 42.7965 76.2577 42.7965 80.0001 42.7981C79.5574 49.1301 77.5893 55.3485 74.2947 60.7749C71.3592 65.6283 67.3796 69.8435 62.7016 73.0512C56.8442 77.0877 49.894 79.5085 42.7969 80.003C42.7969 76.2607 42.7969 72.5183 42.7969 68.7742C48.8148 68.2045 54.6255 65.6851 59.1464 61.6737C64.5895 56.8989 68.1014 50.0072 68.773 42.7981Z" fill="black"/>
</g>
<g id="#ed2939ff">
<path id="Vector_5" d="M38.6615 14.3754C45.2274 14.0012 51.8885 16.3018 56.8371 20.6322C54.57 22.901 52.3011 25.1699 50.0323 27.437C47.2539 25.2083 43.7221 23.9352 40.1585 23.9185C36.4896 23.8667 32.8274 25.1398 29.9705 27.4387C27.7 25.1715 25.4329 22.9027 23.1641 20.6322C27.4411 16.8999 32.9895 14.6561 38.6615 14.3754Z" fill="#ED2939"/>
<path id="Vector_6" d="M14.4173 41.9973C13.8559 35.221 16.1548 28.2742 20.634 23.1602C22.9028 25.429 25.1716 27.6978 27.4387 29.9666C25.1733 32.7834 23.9002 36.3821 23.9186 40.0009C23.9002 43.6163 25.1766 47.2116 27.4387 50.0301C25.1699 52.2989 22.9028 54.5661 20.634 56.8349C17.047 52.7216 14.8283 47.4388 14.4173 41.9973Z" fill="#ED2939"/>
<path id="Vector_7" d="M23.1641 59.369C25.4329 57.1001 27.7 54.8313 29.9705 52.5625C32.7856 54.8263 36.381 56.0977 39.9947 56.0843C43.6135 56.1027 47.2122 54.8296 50.0323 52.5642C52.2995 54.833 54.57 57.1001 56.8371 59.3706C52.52 63.1347 46.9148 65.3902 41.1893 65.6341C34.6719 65.9649 28.0759 63.6643 23.1641 59.369Z" fill="#ED2939"/>
</g>
</g>
</svg>
