<svg width="80" height="68" viewBox="0 0 80 68" fill="none" xmlns="http://www.w3.org/2000/svg">
<g id="5f806c1b1f19d4ceccf381d3_docker 1" clip-path="url(#clip0_1_5233)">
<g id="Group">
<path id="Vector" fill-rule="evenodd" clip-rule="evenodd" d="M12.0676 55.0263V49.8512C12.0676 49.1716 12.4877 48.625 13.1831 48.625H13.3759C14.0711 48.625 14.4892 49.172 14.4892 49.8512V60.7462C14.4892 63.4031 13.1921 65.5169 10.9323 66.8637C9.88448 67.4877 8.72665 67.8078 7.51193 67.8078H7.03176C4.40615 67.8078 2.31996 66.4942 0.98724 64.2084C0.36883 63.1471 0.0546875 61.977 0.0546875 60.7462V60.2606C0.0546875 57.6029 1.35243 55.4903 3.6105 54.1411C4.65921 53.5146 5.81536 53.1969 7.03176 53.1969H7.51193C9.28883 53.1969 10.7964 53.894 12.0676 55.0263ZM2.47594 60.503C2.47594 62.4222 3.39511 63.865 5.0567 64.7851C5.7285 65.1573 6.45803 65.3571 7.22456 65.3571C9.08582 65.3571 10.4662 64.4685 11.4185 62.8722C11.8614 62.1295 12.0676 61.3172 12.0676 60.4534C12.0676 58.7896 11.2893 57.4914 9.96481 56.5271C9.16163 55.9426 8.25753 55.6493 7.27159 55.6493C5.24297 55.6493 3.78306 56.6865 2.90674 58.5293C2.61101 59.1523 2.47594 59.8139 2.47594 60.503ZM22.8898 53.1969H23.2254C26.0311 53.1969 28.1646 54.5744 29.5169 57.0531C30.0577 58.0447 30.3469 59.1267 30.3469 60.2606V60.7462C30.3469 63.4029 29.0525 65.5199 26.7891 66.864C25.7412 67.486 24.5837 67.8078 23.3693 67.8078H22.8898C20.2642 67.8078 18.1777 66.4942 16.8453 64.2084C16.2269 63.1471 15.9121 61.977 15.9121 60.7462V60.2606C15.9121 57.6026 17.2147 55.4969 19.4672 54.1418C20.5146 53.5118 21.6728 53.1969 22.8898 53.1969ZM18.3333 60.503C18.3333 62.3659 19.2368 63.7363 20.7914 64.6997C21.5215 65.1524 22.3253 65.3571 23.1784 65.3571C24.9971 65.3571 26.3414 64.4238 27.2771 62.8702C27.7233 62.1295 27.9251 61.3159 27.9251 60.4534C27.9251 58.7212 27.1007 57.3978 25.6915 56.4387C24.9191 55.9127 24.0594 55.6493 23.1293 55.6493C21.1007 55.6493 19.6408 56.6865 18.7648 58.5293C18.4684 59.1523 18.3333 59.8139 18.3333 60.503ZM40.4137 55.8452C40.0482 55.6719 39.3636 55.6143 38.9685 55.599C36.9454 55.522 35.4816 56.675 34.6229 58.4813C34.3265 59.1044 34.1911 59.764 34.1911 60.4534C34.1911 62.5526 35.28 64.0222 37.1313 64.9181C37.8077 65.2452 38.6808 65.3075 39.4199 65.3075C40.0701 65.3075 40.9886 64.9042 41.5655 64.6269L41.6656 64.579H42.1131L42.1625 64.5891C42.7133 64.705 43.129 65.0583 43.129 65.6581V65.9007C43.129 67.3927 40.4346 67.7345 39.4065 67.807C35.7784 68.0613 33.0649 66.0445 32.0304 62.5419C31.8507 61.934 31.7698 61.3298 31.7698 60.6959V60.211C31.7698 57.5533 33.0728 55.4483 35.325 54.094C36.3723 53.4646 37.5305 53.1485 38.7472 53.1485H39.2271C40.5176 53.1485 41.7064 53.5195 42.772 54.2561L42.8597 54.3175L42.9149 54.4098C43.0299 54.6029 43.129 54.826 43.129 55.0558V55.2984C43.129 55.9239 42.6666 56.2603 42.1082 56.3692L42.0621 56.3775H41.919C41.5575 56.3775 40.7362 55.9988 40.4137 55.8452ZM48.2679 57.5047C49.2083 56.5515 50.1524 55.6001 51.1069 54.6625C51.373 54.4011 52.3802 53.2942 52.7767 53.2942H53.2105L53.2599 53.3043C53.8122 53.4205 54.2261 53.7746 54.2261 54.3754V54.6178C54.2261 55.0277 53.7518 55.5038 53.4902 55.7844C52.9339 56.3811 52.3481 56.9586 51.7787 57.5431L48.8533 60.5487C50.1129 61.8264 51.3713 63.1055 52.6207 64.393C52.9663 64.749 53.3121 65.1056 53.6523 65.4669C53.7727 65.595 53.9503 65.7544 54.0512 65.932C54.1595 66.0982 54.2261 66.2857 54.2261 66.4859V66.7393L54.212 66.7976C54.0759 67.3566 53.7253 67.8078 53.1131 67.8078H52.9205C52.5198 67.8078 52.0674 67.349 51.7928 67.0871C51.2276 66.5474 50.6813 65.98 50.127 65.4288L48.2679 63.5818V66.5339C48.2679 67.2138 47.8473 67.7603 47.1526 67.7603H46.9618C46.2664 67.7603 45.8465 67.2138 45.8465 66.5339V49.8988C45.8465 49.2185 46.2667 48.6746 46.9618 48.6746H47.1526C47.8473 48.6746 48.2679 49.2185 48.2679 49.8988V57.5047ZM78.4483 53.2942H78.6887C79.415 53.2942 79.8997 53.7895 79.8997 54.5202C79.8997 55.5348 78.9414 55.7945 78.1121 55.7945C77.0246 55.7945 75.9864 56.4609 75.2368 57.2082C74.3019 58.1409 73.8927 59.3356 73.8927 60.6487V66.5818C73.8927 67.2621 73.4733 67.8078 72.777 67.8078H72.5861C71.8902 67.8078 71.4708 67.2621 71.4708 66.5818V60.3082C71.4708 57.899 72.6296 55.9326 74.5611 54.5532C75.7149 53.7292 77.0359 53.2942 78.4483 53.2942ZM61.2374 65.0521C62.1186 65.3634 63.1235 65.319 64.0276 65.1596C64.4898 64.9608 65.6726 64.4387 66.1076 64.5151L66.1755 64.5266L66.238 64.5578C66.5034 64.6881 66.7571 64.8724 66.8925 65.1457C67.2095 65.7872 67.0572 66.4316 66.4348 66.7956L66.2276 66.9167C63.9305 68.2586 61.4875 68.0726 59.198 66.8193C58.1032 66.2205 57.2657 65.3312 56.648 64.2475L56.5034 63.9941C55.0289 61.4096 55.2279 58.6907 56.8908 56.2329C57.4651 55.3834 58.2154 54.727 59.0927 54.2138L59.4246 54.02C61.5877 52.7562 63.9061 52.8426 66.1278 53.9519C67.3223 54.5483 68.2902 55.4376 68.9571 56.6067L69.077 56.8173C69.5615 57.6668 68.9339 58.4072 68.286 58.9131C67.5342 59.5002 66.775 60.2066 66.0544 60.8362C64.4477 62.2399 62.8433 63.647 61.2374 65.0521ZM59.1578 63.5738C60.9549 62.0143 62.7524 60.4537 64.5444 58.8879C65.1568 58.3533 65.8284 57.7985 66.4361 57.2363C65.9484 56.6147 65.1342 56.1665 64.4421 55.8992C63.0457 55.3605 61.6682 55.5415 60.3874 56.2898C58.7106 57.2695 57.9966 58.8299 58.0594 60.7716C58.084 61.5363 58.2873 62.2731 58.6883 62.9237C58.8296 63.1531 58.9874 63.3684 59.1578 63.5738Z" fill="#364548"/>
<path id="Vector_2" fill-rule="evenodd" clip-rule="evenodd" d="M46.089 14.4642H53.2346V21.8571H56.8477C58.5161 21.8571 60.2323 21.5563 61.8124 21.0144C62.5888 20.748 63.4602 20.3772 64.2261 19.9109C63.2174 18.578 62.7024 16.8949 62.5508 15.2359C62.3449 12.9795 62.7946 10.0425 64.3036 8.27646L65.0547 7.39717L65.9498 8.12537C68.2033 9.95781 70.0986 12.5183 70.4326 15.4372C73.1461 14.6294 76.3319 14.8204 78.7237 16.2175L79.7049 16.7906L79.1884 17.8108C77.1657 21.8063 72.9369 23.044 68.8025 22.825C62.6159 38.4202 49.1469 45.8035 32.8159 45.8035C24.3787 45.8035 16.6378 42.6114 12.2298 35.0352L12.1575 34.9115L11.5153 33.5891C10.0252 30.2542 9.53035 26.6009 9.86608 22.9505L9.96683 21.8571H16.0771V14.4642H23.2226V7.23202H37.5141V0H46.089V14.4642Z" fill="#364548"/>
<path id="Vector_3" fill-rule="evenodd" clip-rule="evenodd" d="M69.2405 17.1967C69.7197 13.4281 66.9331 10.4679 65.2049 9.0625C63.2134 11.3928 62.9039 17.5001 66.0283 20.0714C64.2847 21.6389 60.6104 23.0597 56.8484 23.0597H11.0531C10.6872 27.0344 11.3767 30.6945 12.9513 33.8275L13.4723 34.7919C13.8022 35.3585 14.1625 35.9052 14.552 36.4317C16.4346 36.554 18.1707 36.5963 19.7588 36.5608H19.7595C22.8805 36.4908 25.4269 36.1182 27.357 35.4413C27.6444 35.3402 27.9575 35.4945 28.0569 35.785C28.1562 36.0755 28.0042 36.3926 27.7172 36.4934C27.4606 36.5833 27.193 36.6675 26.9167 36.7474C26.9163 36.7476 26.916 36.7476 26.9157 36.7478C25.396 37.1868 23.7665 37.4824 21.6639 37.6137C21.7886 37.6157 21.5339 37.6327 21.5332 37.6328C21.4618 37.6372 21.3717 37.6476 21.2999 37.6516C20.4725 37.6986 19.5793 37.7084 18.6661 37.7084C17.6675 37.7084 16.6839 37.6892 15.5843 37.6328L15.5562 37.6516C19.3719 41.9922 25.3381 44.5955 32.8166 44.5955C48.6442 44.5955 62.0693 37.4944 68.0141 21.5522C72.2318 21.9902 76.2852 20.9017 78.129 17.2588C75.192 15.5435 71.4152 16.0904 69.2405 17.1967Z" fill="#22A0C8"/>
<path id="Vector_4" fill-rule="evenodd" clip-rule="evenodd" d="M69.2404 17.1967C69.7196 13.4281 66.933 10.4679 65.2048 9.0625C63.2133 11.3928 62.9039 17.5001 66.0282 20.0714C64.2846 21.6389 60.6103 23.0597 56.8483 23.0597H13.7648C13.5778 29.1468 15.8098 33.7674 19.7588 36.5608H19.7594C22.8804 36.4908 25.4269 36.1182 27.3569 35.4413C27.6443 35.3402 27.9574 35.4945 28.0568 35.785C28.1561 36.0755 28.0041 36.3926 27.7171 36.4934C27.4605 36.5833 27.1929 36.6675 26.9166 36.7474L26.9156 36.7478C25.3959 37.1868 23.6264 37.5204 21.5238 37.6516C21.5238 37.6516 21.4729 37.6023 21.4722 37.6025C26.8587 40.3989 34.6692 40.3889 43.6239 36.9075C53.6647 33.0036 63.0078 25.5658 69.5271 17.0588C69.4287 17.1037 69.333 17.1498 69.2404 17.1967Z" fill="#37B1D9"/>
<path id="Vector_5" fill-rule="evenodd" clip-rule="evenodd" d="M11.1387 27.8906C11.4234 30.0197 12.0386 32.0132 12.9512 33.8292L13.4722 34.7935C13.8021 35.3601 14.1624 35.9069 14.5521 36.4334C16.4351 36.5557 18.1711 36.598 19.7594 36.5624C22.8804 36.4925 25.4269 36.1198 27.3569 35.443C27.6443 35.3418 27.9574 35.4961 28.0568 35.7866C28.1561 36.0771 28.0041 36.3942 27.7171 36.495C27.4605 36.585 27.1929 36.6692 26.9166 36.7491L26.9156 36.7494C25.3959 37.1885 23.6357 37.5031 21.5331 37.6345C21.461 37.6389 21.3352 37.6397 21.2624 37.6438C20.4352 37.6909 19.5512 37.7195 18.6379 37.7195C17.6394 37.7195 16.6183 37.7002 15.5189 37.6438C19.3345 41.9844 25.338 44.5972 32.8165 44.5972C46.3665 44.5972 58.1552 39.3919 64.9974 27.8906H11.1387Z" fill="#1B81A5"/>
<path id="Vector_6" fill-rule="evenodd" clip-rule="evenodd" d="M14.1777 27.8906C14.9878 31.6288 16.9344 34.5637 19.7602 36.5624C22.8812 36.4925 25.4276 36.1198 27.3576 35.443C27.645 35.3418 27.9582 35.4961 28.0576 35.7866C28.1568 36.0771 28.0048 36.3942 27.7178 36.495C27.4612 36.585 27.1936 36.6692 26.9173 36.7491L26.9163 36.7494C25.3966 37.1885 23.5992 37.5031 21.4966 37.6345C26.8827 40.4304 34.6706 40.3903 43.6246 36.9092C49.0415 34.8028 54.2549 31.6671 58.9322 27.8906H14.1777Z" fill="#1D91B4"/>
<path id="Vector_7" fill-rule="evenodd" clip-rule="evenodd" d="M17.2695 15.6719H23.4623V21.9399H17.2695V15.6719ZM17.7853 16.1943H18.274V21.4179H17.7853V16.1943ZM18.7042 16.1943H19.2125V21.4179H18.7042V16.1943ZM19.6423 16.1943H20.1505V21.4179H19.6423V16.1943ZM20.5808 16.1943H21.0891V21.4179H20.5808V16.1943ZM21.5192 16.1943H22.0275V21.4179H21.5192V16.1943ZM22.4575 16.1943H22.9465V21.4179H22.4575V16.1943Z" fill="#23A3C2"/>
<path id="Vector_8" fill-rule="evenodd" clip-rule="evenodd" d="M24.4141 8.43738H30.6075V14.7051H24.4141V8.43738ZM24.9305 8.95977H25.4189V14.1828H24.9305V8.95977ZM25.8494 8.95977H26.3573V14.1828H25.8494V8.95977ZM26.7873 8.95977H27.2956V14.1828H26.7873V8.95977ZM27.7257 8.95977H28.234V14.1828H27.7257V8.95977ZM28.6643 8.95977H29.1726V14.1828H28.6643V8.95977ZM29.6023 8.95977H30.0917V14.1828H29.6023V8.95977Z" fill="#23A3C2"/>
<path id="Vector_9" fill-rule="evenodd" clip-rule="evenodd" d="M24.4141 15.6719H30.6075V21.9399H24.4141V15.6719ZM24.9305 16.1943H25.4189V21.4179H24.9305V16.1943ZM25.8494 16.1943H26.3573V21.4179H25.8494V16.1943ZM26.7873 16.1943H27.2956V21.4179H26.7873V16.1943ZM27.7257 16.1943H28.234V21.4179H27.7257V16.1943ZM28.6643 16.1943H29.1726V21.4179H28.6643V16.1943ZM29.6023 16.1943H30.0917V21.4179H29.6023V16.1943Z" fill="#34BBDE"/>
<path id="Vector_10" fill-rule="evenodd" clip-rule="evenodd" d="M31.5605 15.6719H37.7537V21.9399H31.5605V15.6719ZM32.0767 16.1943H32.5651V21.4179H32.0767V16.1943ZM32.9954 16.1943H33.5036V21.4179H32.9954V16.1943ZM33.9338 16.1943H34.4421V21.4179H33.9338V16.1943ZM34.8722 16.1943H35.3805V21.4179H34.8722V16.1943ZM35.8104 16.1943H36.319V21.4179H35.8104V16.1943ZM36.7488 16.1943H37.2375V21.4179H36.7488V16.1943Z" fill="#23A3C2"/>
<path id="Vector_11" fill-rule="evenodd" clip-rule="evenodd" d="M31.5605 8.43738H37.7537V14.7051H31.5605V8.43738ZM32.0767 8.95977H32.5651V14.1828H32.0767V8.95977ZM32.9954 8.95977H33.5036V14.1828H32.9954V8.95977ZM33.9338 8.95977H34.4421V14.1828H33.9338V8.95977ZM34.8722 8.95977H35.3805V14.1828H34.8722V8.95977ZM35.8104 8.95977H36.319V14.1828H35.8104V8.95977ZM36.7488 8.95977H37.2375V14.1828H36.7488V8.95977Z" fill="#34BBDE"/>
<path id="Vector_12" fill-rule="evenodd" clip-rule="evenodd" d="M38.707 15.6719H44.9V21.9399H38.707V15.6719ZM39.2232 16.1943H39.7117V21.4179H39.2232V16.1943ZM40.142 16.1943H40.6503V21.4179H40.142V16.1943ZM41.0801 16.1943H41.5884V21.4179H41.0801V16.1943ZM42.0187 16.1943H42.5269V21.4179H42.0187V16.1943ZM42.9571 16.1943H43.4654V21.4179H42.9571V16.1943ZM43.8953 16.1943H44.3842V21.4179H43.8953V16.1943Z" fill="#34BBDE"/>
<path id="Vector_13" fill-rule="evenodd" clip-rule="evenodd" d="M38.7051 8.43738H44.898V14.7051H38.7051V8.43738ZM39.2212 8.95977H39.7098V14.1828H39.2212V8.95977ZM40.1401 8.95977H40.6483V14.1828H40.1401V8.95977ZM41.0781 8.95977H41.5864V14.1828H41.0781V8.95977ZM42.0167 8.95977H42.525V14.1828H42.0167V8.95977ZM42.9551 8.95977H43.4634V14.1828H42.9551V8.95977ZM43.8934 8.95977H44.3822V14.1828H43.8934V8.95977Z" fill="#23A3C2"/>
<path id="Vector_14" fill-rule="evenodd" clip-rule="evenodd" d="M38.707 1.20703H44.9V7.47506H38.707V1.20703ZM39.2232 1.72908H39.7117V6.95267H39.2232V1.72908ZM40.142 1.72908H40.6503V6.95267H40.142V1.72908ZM41.0801 1.72908H41.5884V6.95267H41.0801V1.72908ZM42.0187 1.72908H42.5269V6.95267H42.0187V1.72908ZM42.9571 1.72908H43.4654V6.95267H42.9571V1.72908ZM43.8953 1.72908H44.3842V6.95267H43.8953V1.72908Z" fill="#34BBDE"/>
<path id="Vector_15" fill-rule="evenodd" clip-rule="evenodd" d="M45.8516 15.6719H52.0447V21.9399H45.8516V15.6719ZM46.3674 16.1943H46.8564V21.4179H46.3674V16.1943ZM47.2862 16.1943H47.7945V21.4179H47.2862V16.1943ZM48.2248 16.1943H48.7331V21.4179H48.2248V16.1943ZM49.1629 16.1943H49.6711V21.4179H49.1629V16.1943ZM50.1016 16.1943H50.6097V21.4179H50.1016V16.1943ZM51.0398 16.1943H51.5285V21.4179H51.0398V16.1943Z" fill="#23A3C2"/>
<path id="Vector_16" fill-rule="evenodd" clip-rule="evenodd" d="M30.2203 32.1016C31.1638 32.1016 31.9286 32.876 31.9286 33.8308C31.9286 34.7857 31.1638 35.5598 30.2203 35.5598C29.2767 35.5598 28.5117 34.7857 28.5117 33.8308C28.5117 32.876 29.2767 32.1016 30.2203 32.1016Z" fill="#D3ECEC"/>
<path id="Vector_17" fill-rule="evenodd" clip-rule="evenodd" d="M30.2199 32.5898C30.3762 32.5898 30.5253 32.6197 30.6629 32.6737C30.5138 32.7609 30.4128 32.9244 30.4128 33.1114C30.4128 33.3905 30.6364 33.6165 30.9122 33.6165C31.1012 33.6165 31.2654 33.5103 31.3502 33.3534C31.4102 33.4996 31.4435 33.6602 31.4435 33.8286C31.4435 34.5124 30.8957 35.0668 30.2199 35.0668C29.5442 35.0668 28.9961 34.5124 28.9961 33.8286C28.9961 33.1444 29.5442 32.5898 30.2199 32.5898Z" fill="#364548"/>
<path id="Vector_18" fill-rule="evenodd" clip-rule="evenodd" d="M0 28.5156H79.4773C77.7468 28.0713 74.002 27.4712 74.6196 25.1758C71.473 28.861 63.8843 27.7611 61.9692 25.944C59.8365 29.0746 47.4209 27.8846 46.555 25.4458C43.8813 28.6215 35.5965 28.6215 32.9227 25.4458C32.0564 27.8846 19.641 29.0746 17.5081 25.944C15.593 27.7611 8.00502 28.861 4.85808 25.1758C5.47565 27.4712 1.73088 28.0713 0 28.5156Z" fill="#364548"/>
<path id="Vector_19" fill-rule="evenodd" clip-rule="evenodd" d="M34.7614 44.5606C30.5302 42.5284 28.2077 39.766 26.9155 36.7502C25.344 37.2044 23.4546 37.4945 21.2594 37.6192C20.4325 37.6661 19.5627 37.6902 18.6497 37.6902C17.5974 37.6902 16.4884 37.6587 15.3242 37.5962C19.2044 41.5209 23.9779 44.5428 32.8164 44.598C33.469 44.598 34.1169 44.5851 34.7614 44.5606Z" fill="#BDD9D7"/>
<path id="Vector_20" fill-rule="evenodd" clip-rule="evenodd" d="M28.4875 39.533C27.9021 38.7287 27.3342 37.718 26.9168 36.7499C25.345 37.2042 23.4552 37.4945 21.2598 37.6192C22.7677 38.4477 24.9245 39.2154 28.4875 39.533Z" fill="#D3ECEC"/>
</g>
</g>
<defs>
<clipPath id="clip0_1_5233">
<rect width="80" height="68" fill="white"/>
</clipPath>
</defs>
</svg>
