<svg width="80" height="26" viewBox="0 0 80 26" fill="none" xmlns="http://www.w3.org/2000/svg">
<g id="Group 216323">
<path id="Vector" fill-rule="evenodd" clip-rule="evenodd" d="M73.393 17.0801H77.1414V11.3659H73.393V17.0801ZM77.1207 9.12099H79.9993V19.7332C79.9993 21.4883 79.8129 21.7944 79.3366 22.2638C78.9638 22.6515 78.3632 22.8352 77.3278 22.8352H73.1238L71.8191 21.4066V20.8148H77.1207V19.3658H73.4965C72.3989 19.3658 71.8398 19.1617 71.3842 18.7128C70.7836 18.1005 70.5351 16.774 70.5351 14.2638C70.5351 11.7536 70.825 10.3659 71.4463 9.73324C71.9226 9.28426 72.5025 9.10059 73.5379 9.10059L75.6917 9.12099L77.1207 10.4067V9.12099ZM43.1574 6.30469H46.5537L41.6663 12.4271L46.7608 19.3454H43.1574L39.2848 13.9169H38.3736V19.3454H35.3086V6.30469H38.3736V11.3659H39.2848L43.1574 6.30469ZM65.5235 12.3455V11.4067H64.488C64.4673 11.4067 64.4673 11.4067 64.4466 11.4067H63.6389C63.6182 11.4067 63.6182 11.4067 63.5975 11.4067H62.0029V12.3455V19.3046H59.145V9.12099H61.0295H62.0029V9.30467V10.4067L63.4318 9.12099H64.2602C64.3844 9.10059 64.5294 9.10059 64.6744 9.10059H65.9169C66.7867 9.10059 67.3459 9.28426 67.7393 9.67201C68.1742 10.0802 68.3399 10.6108 68.3399 12.121V19.3046H65.482V12.4679C65.5235 12.4271 65.5235 12.3863 65.5235 12.3455ZM50.4678 17.0597H54.2162V11.3455H50.4678V17.0597ZM50.5921 19.3046C49.5566 19.3046 48.9974 19.1413 48.5625 18.672C47.8998 17.9985 47.6306 17.0801 47.6306 14.2026C47.6306 11.3047 47.8998 10.4067 48.5625 9.71283C48.9974 9.26385 49.5566 9.10059 50.5921 9.10059H54.0712C55.1067 9.10059 55.6658 9.26385 56.1007 9.71283C56.7634 10.4067 57.0326 11.3047 57.0326 14.2026C57.0326 17.1005 56.7634 17.9985 56.1007 18.672C55.6451 19.1413 55.1067 19.3046 54.0712 19.3046H50.5921Z" fill="white"/>
<path id="Vector_2" fill-rule="evenodd" clip-rule="evenodd" d="M8.94531 22.3042L9.67014 21.4062H15.0338L17.8296 24.8348L17.3326 25.9981H10.4157L10.5813 24.8348L8.94531 22.3042Z" fill="#169FCC"/>
<path id="Vector_3" fill-rule="evenodd" clip-rule="evenodd" d="M10.9551 10.429L13.4609 6.08209H16.3809L29.4692 21.3473L28.4544 26.0003H22.8422L23.1943 24.6942L10.9551 10.429Z" fill="#14B59A"/>
<path id="Vector_4" fill-rule="evenodd" clip-rule="evenodd" d="M13.9375 4.99997L15.1179 2.83672L18.6592 0L24.727 4.71426L23.9401 5.51017L24.9963 6.95914V8.51015L21.9727 10.9591L16.8989 4.99997H13.9375Z" fill="#1BC263"/>
<path id="Vector_5" fill-rule="evenodd" clip-rule="evenodd" d="M4.36966 14.8965H6.00569L10.2718 11.3047L15.9254 17.9169L14.3308 20.325H9.11209L5.50867 24.9373L4.6803 25.9985H0V20.3454L4.36966 14.8965Z" fill="#16BDCC"/>
</g>
</svg>
