<svg width="80" height="80" viewBox="0 0 80 80" fill="none" xmlns="http://www.w3.org/2000/svg">
<g id="256 1" clip-path="url(#clip0_1_5176)">
<g id="#1eb6e8ff">
<path id="Vector" d="M38.6438 0H41.0844C50.0969 0.23125 58.9844 3.61562 65.8375 9.47188C74.3937 16.6313 79.6438 27.5031 80 38.65V41.0938C79.7562 50.1 76.3812 58.9844 70.5219 65.8375C63.3125 74.4531 52.3312 79.7375 41.0969 80H38.9125C29.9125 79.7531 21.0281 76.3875 14.1781 70.5344C5.55312 63.3219 0.2625 52.3375 0 41.0969V38.8969C0.265625 27.5094 5.69375 16.3844 14.5156 9.18125C21.2469 3.55 29.8813 0.315625 38.6438 0ZM40.45 14.6063C30.7938 15.5375 21.8937 21.8531 17.85 30.6719C15.3625 35.9781 14.625 42.0781 15.7719 47.825C17.0844 54.6187 21.0719 60.8406 26.6594 64.9156C31.4688 68.4844 37.4406 70.4094 43.4219 70.4125C48.5781 70.4 53.7375 68.9875 58.1313 66.2781C63.4125 63.0719 67.5875 58.075 69.7656 52.2875C72.2031 45.8906 72.1531 38.5812 69.6313 32.2188C67.3406 26.3969 63.0312 21.4094 57.6156 18.2781C52.4812 15.25 46.3688 14.0094 40.45 14.6063Z" fill="#1EB6E8"/>
</g>
<g id="#895fdeff">
<path id="Vector_2" d="M40.4496 14.6066C46.3684 14.0097 52.4809 15.2503 57.6152 18.2784C63.0309 21.4097 67.3403 26.3972 69.6309 32.2191C72.1528 38.5816 72.2028 45.8909 69.7653 52.2878C67.5871 58.0753 63.4121 63.0722 58.1309 66.2784C53.7371 68.9878 48.5778 70.4003 43.4215 70.4128C37.4403 70.4097 31.4684 68.4847 26.659 64.9159C21.0715 60.8409 17.084 54.6191 15.7715 47.8253C14.6246 42.0784 15.3621 35.9784 17.8496 30.6722C21.8934 21.8534 30.7934 15.5378 40.4496 14.6066ZM47.2653 32.5878C43.9309 33.0878 40.8028 34.7941 38.5403 37.2941C35.4934 40.5753 34.0653 45.2941 34.8059 49.7159C35.3746 53.4628 37.4559 56.9534 40.4684 59.2534C43.7434 61.8097 48.1246 62.8847 52.2121 62.1316C55.9434 61.5003 59.3778 59.3597 61.6215 56.3191C63.5684 53.7034 64.6465 50.4409 64.5746 47.1753C64.559 42.6159 62.2715 38.1441 58.6215 35.4222C55.4309 32.9909 51.2246 31.9253 47.2653 32.5878Z" fill="#895FDE"/>
</g>
<g id="#ffffffff">
<path id="Vector_3" d="M47.2652 32.5875C51.2246 31.925 55.4308 32.9907 58.6214 35.4219C62.2714 38.1438 64.5589 42.6157 64.5746 47.175C64.6464 50.4407 63.5683 53.7032 61.6214 56.3188C59.3777 59.3594 55.9433 61.5 52.2121 62.1313C48.1246 62.8844 43.7433 61.8094 40.4683 59.2532C37.4558 56.9532 35.3746 53.4625 34.8058 49.7157C34.0652 45.2938 35.4933 40.575 38.5402 37.2938C40.8027 34.7938 43.9308 33.0875 47.2652 32.5875Z" fill="white"/>
</g>
</g>
<defs>
<clipPath id="clip0_1_5176">
<rect width="80" height="80" fill="white"/>
</clipPath>
</defs>
</svg>
