<svg width="80" height="80" viewBox="0 0 80 80" fill="none" xmlns="http://www.w3.org/2000/svg">
<g id="NestJS">
<path id="Vector" fill-rule="evenodd" clip-rule="evenodd" d="M46.3641 1.32812C45.817 1.32812 45.309 1.44949 44.8401 1.61129C45.8365 2.29898 46.3836 3.20917 46.6572 4.2407C46.6768 4.38228 46.7158 4.48342 46.7353 4.62499C46.7549 4.74636 46.7744 4.86771 46.7744 4.98907C46.8526 6.76897 46.325 6.99146 45.9538 8.04323C45.3871 9.39839 45.5435 10.8547 46.2273 12.0278C46.2859 12.1694 46.3641 12.3312 46.4618 12.4728C45.7193 7.35554 49.8419 6.58694 50.6039 4.98907C50.6625 3.59346 49.5489 2.66305 48.6696 2.01582C47.8295 1.48994 47.0675 1.32812 46.3641 1.32812ZM52.5773 2.48102C52.4991 2.94622 52.5578 2.82486 52.5383 3.06758C52.5187 3.22939 52.5187 3.43165 52.4992 3.59346C52.4602 3.75527 52.421 3.91708 52.3625 4.0789C52.3234 4.2407 52.2648 4.40251 52.2062 4.56432C52.128 4.72613 52.0694 4.86771 51.9912 5.02952C51.9326 5.11046 51.8935 5.19133 51.8349 5.27224C51.7959 5.33292 51.7567 5.3936 51.7177 5.45427C51.62 5.59586 51.5223 5.73744 51.4246 5.8588C51.3074 5.98016 51.2097 6.12173 51.0729 6.22287V6.24312C50.9557 6.34426 50.8385 6.46561 50.7017 6.56674C50.2914 6.89036 49.8225 7.13307 49.3926 7.43647C49.2558 7.5376 49.1191 7.61851 49.0018 7.73986C48.8651 7.84099 48.7478 7.94212 48.6306 8.06348C48.4938 8.18484 48.3961 8.3062 48.2789 8.44778C48.1812 8.56914 48.064 8.71072 47.9858 8.85231C47.8881 8.99389 47.7905 9.13547 47.7123 9.27705C47.6341 9.43886 47.5755 9.58045 47.4974 9.74225C47.4388 9.90406 47.3801 10.0456 47.3411 10.2075C47.2824 10.3895 47.2434 10.5513 47.2043 10.7131C47.1847 10.7941 47.1847 10.8951 47.1652 10.9761C47.1457 11.057 47.1457 11.1379 47.1262 11.2188C47.1262 11.3806 47.1066 11.5626 47.1066 11.7244C47.1066 11.8458 47.1066 11.9671 47.1262 12.0885C47.1262 12.2503 47.1458 12.4121 47.1848 12.5942C47.2044 12.756 47.2434 12.9178 47.2825 13.0796C47.3411 13.2414 47.3802 13.4032 47.4388 13.565C47.4779 13.6661 47.5365 13.7673 47.5756 13.8482L43.0817 12.048C42.3197 11.8256 41.5773 11.6233 40.8153 11.4413C40.405 11.3401 39.9946 11.239 39.5843 11.1379C38.412 10.8952 37.2202 10.7131 36.0283 10.5918C35.9893 10.5918 35.9697 10.5715 35.9306 10.5715C34.7583 10.4502 33.6056 10.3895 32.4332 10.3895C31.5735 10.3895 30.7138 10.4299 29.8737 10.4906C28.6818 10.5715 27.49 10.7333 26.2981 10.9356C26.0051 10.976 25.712 11.0367 25.4189 11.0974C24.8132 11.2187 24.2271 11.3603 23.6604 11.5019C23.3674 11.5829 23.0743 11.6637 22.7812 11.7446C22.4881 11.866 22.2146 12.0076 21.941 12.1289C21.7261 12.2301 21.5112 12.3312 21.2963 12.4323C21.2572 12.4526 21.2181 12.4526 21.1986 12.4727C21.0032 12.5739 20.8274 12.6548 20.6515 12.7559C20.5929 12.7762 20.5538 12.7963 20.5147 12.8166C20.2998 12.9177 20.0849 13.0391 19.909 13.1402C19.7723 13.2009 19.6355 13.2818 19.5183 13.3425C19.4597 13.3829 19.3815 13.4234 19.3424 13.4436C19.1666 13.5447 18.9907 13.6459 18.8344 13.747C18.6586 13.8481 18.5023 13.9493 18.3655 14.0504C18.2287 14.1515 18.092 14.2324 17.9747 14.3335C17.9552 14.3538 17.9357 14.3538 17.9161 14.374C17.7989 14.4549 17.6621 14.556 17.5449 14.6571C17.5449 14.6571 17.5253 14.6774 17.5058 14.6976C17.4081 14.7785 17.3104 14.8594 17.2128 14.9403C17.1737 14.9605 17.1346 15.0009 17.0955 15.0212C16.9978 15.1021 16.9001 15.2032 16.8025 15.2842C16.7829 15.3246 16.7438 15.3448 16.7243 15.3651C16.607 15.4864 16.4898 15.5876 16.3726 15.7089C16.353 15.7089 16.353 15.7292 16.3335 15.7494C16.2163 15.8505 16.0991 15.9718 15.9818 16.0932C15.9623 16.1135 15.9623 16.1336 15.9428 16.1336C15.8451 16.2347 15.7474 16.3359 15.6497 16.4572C15.6107 16.4977 15.552 16.5382 15.5129 16.5786C15.4152 16.7 15.298 16.8213 15.1808 16.9427C15.1612 16.9831 15.1222 17.0033 15.1026 17.0438C14.9463 17.2056 14.8095 17.3674 14.6532 17.5292C14.6336 17.5495 14.6142 17.5697 14.5946 17.5899C14.282 17.9338 13.9498 18.2776 13.5981 18.581C13.2464 18.9046 12.8752 19.208 12.504 19.4709C12.1132 19.7541 11.742 19.9968 11.3317 20.2395C10.9409 20.462 10.5306 20.6643 10.1007 20.8463C9.69043 21.0284 9.26058 21.1902 8.83074 21.3318C8.01011 21.5138 7.16996 21.8576 6.44703 21.9183C6.29073 21.9183 6.11488 21.9587 5.95857 21.979C5.78272 22.0194 5.62642 22.0599 5.47011 22.1004C5.31381 22.161 5.15749 22.2217 5.00118 22.2824C4.84488 22.3431 4.68857 22.424 4.53226 22.5049C4.39549 22.606 4.23918 22.6869 4.10241 22.788C3.96565 22.8892 3.82887 23.0105 3.71164 23.1319C3.57488 23.233 3.4381 23.3746 3.32087 23.496C3.20364 23.6376 3.08641 23.7589 2.98872 23.9005C2.89103 24.0623 2.77379 24.2039 2.69564 24.3657C2.59795 24.5073 2.50026 24.6691 2.4221 24.8309C2.34391 25.0129 2.26579 25.1747 2.20718 25.3568C2.14856 25.5186 2.08994 25.7006 2.03133 25.8827C1.99228 26.0445 1.95314 26.2063 1.93364 26.3681C1.93364 26.3884 1.91407 26.4085 1.91407 26.4288C1.87502 26.6108 1.87502 26.8535 1.85545 26.9749C1.83588 27.1165 1.81641 27.2378 1.81641 27.3794C1.81641 27.4603 1.81641 27.5614 1.83597 27.6423C1.85554 27.7839 1.87502 27.9053 1.91416 28.0266C1.95321 28.148 1.99235 28.2693 2.05092 28.3907V28.411C2.10954 28.5323 2.1877 28.6537 2.26585 28.775C2.34403 28.8964 2.42216 29.0178 2.51985 29.1391C2.61754 29.2402 2.73477 29.3616 2.85201 29.4627C2.96924 29.5841 3.08647 29.6852 3.22324 29.7863C3.69216 30.2111 3.80939 30.3527 4.41509 30.6763C4.51278 30.737 4.61048 30.7774 4.72771 30.8381C4.74728 30.8381 4.76676 30.8584 4.78632 30.8584C4.78632 30.8988 4.78633 30.919 4.8059 30.9595C4.82547 31.1213 4.86451 31.2831 4.90359 31.4449C4.94263 31.627 5.00129 31.7888 5.0599 31.9304C5.11852 32.0517 5.15759 32.1731 5.21621 32.2944C5.23578 32.3349 5.25526 32.3754 5.27483 32.3956C5.35301 32.5574 5.43113 32.699 5.50928 32.8405C5.60698 32.9821 5.70467 33.1237 5.80236 33.2653C5.90005 33.3866 6.01728 33.5282 6.13451 33.6496C6.25175 33.7709 6.36898 33.8721 6.50575 33.9934C6.50575 33.9934 6.52532 34.0137 6.5448 34.0137C6.66203 34.1148 6.77926 34.216 6.89649 34.2969C7.03326 34.398 7.17003 34.4789 7.32634 34.5598C7.46311 34.6408 7.61942 34.7216 7.77572 34.7823C7.89296 34.843 8.02972 34.8834 8.16649 34.9239C8.18607 34.9442 8.20554 34.9442 8.24468 34.9643C8.32287 34.9846 8.42052 35.0047 8.49868 35.025C8.44006 36.1172 8.42049 37.1487 8.57686 37.5128C8.7527 37.9173 9.6124 36.6835 10.4721 35.2677C10.3549 36.6633 10.2767 38.3016 10.4721 38.7871C10.687 39.2927 11.8593 37.7151 12.8753 35.9756C26.7281 32.6585 39.3696 42.5694 40.6982 56.5659C40.4442 54.3815 37.8456 53.1679 36.6537 53.4713C36.0676 54.968 35.0711 56.8895 33.4689 58.0829C33.6057 56.7479 33.5471 55.3726 33.2736 54.0376C32.8437 55.8984 32.0035 57.6379 30.8508 59.1346C28.9946 59.2762 27.1384 58.3458 26.1615 56.9502C26.0833 56.8895 26.0638 56.7682 26.0052 56.6873C25.9466 56.5457 25.888 56.4041 25.8489 56.2625C25.7903 56.1209 25.7512 55.9793 25.7317 55.8378C25.7121 55.6962 25.7121 55.5546 25.7121 55.3928C25.7121 55.2916 25.7121 55.1905 25.7121 55.0894C25.7317 54.9478 25.7707 54.8062 25.8098 54.6646C25.8488 54.5231 25.888 54.3815 25.9466 54.2399C26.0248 54.0983 26.0833 53.9567 26.181 53.8151C26.5132 52.8443 26.5132 52.0555 25.9075 51.5903C25.7903 51.5093 25.673 51.4487 25.5363 51.388C25.4581 51.3677 25.3604 51.3273 25.2823 51.3071C25.2236 51.2868 25.1846 51.2666 25.126 51.2464C24.9892 51.206 24.8524 51.1654 24.7156 51.1452C24.5789 51.1048 24.4421 51.0846 24.3053 51.0846C24.1686 51.0643 24.0122 51.0441 23.8755 51.0441C23.7778 51.0441 23.6801 51.0644 23.5824 51.0644C23.4261 51.0644 23.2893 51.0847 23.1526 51.1251C23.0158 51.1454 22.879 51.1655 22.7422 51.206C22.6055 51.2464 22.4687 51.2869 22.3319 51.3476C22.1952 51.4083 22.0779 51.469 21.9412 51.5296C21.8239 51.5903 21.7067 51.6712 21.5699 51.7319C17.0175 54.8063 19.7333 62.0068 22.8399 64.0901C21.6676 64.3126 20.4758 64.5755 20.1436 64.8385C20.1241 64.8587 20.1046 64.8789 20.1046 64.8789C20.9447 65.4048 21.824 65.8498 22.7423 66.234C23.9927 66.6588 25.3214 67.0431 25.9075 67.2049V67.2252C27.5292 67.569 29.1705 67.6904 30.8312 67.5892C39.4868 66.9622 46.5793 60.146 47.8688 51.1656C47.9079 51.3476 47.947 51.5094 47.9861 51.6914C48.0447 52.0555 48.1228 52.4398 48.1619 52.8241V52.8444C48.2009 53.0264 48.2205 53.2085 48.2401 53.3703V53.4512C48.2597 53.6332 48.2791 53.8153 48.2791 53.9771C48.2987 54.1996 48.3182 54.4221 48.3182 54.6446V54.9682C48.3182 55.0693 48.3377 55.1906 48.3377 55.2918C48.3377 55.4131 48.3182 55.5345 48.3182 55.6559V55.939C48.3182 56.0806 48.2986 56.202 48.2986 56.3435C48.2986 56.4245 48.2986 56.5054 48.279 56.6065C48.279 56.7481 48.2595 56.8897 48.2595 57.0515C48.2399 57.1121 48.2399 57.1728 48.2399 57.2335C48.2203 57.3953 48.2008 57.5369 48.1812 57.6987C48.1812 57.7594 48.1812 57.8201 48.1617 57.8807C48.1421 58.083 48.1031 58.265 48.0835 58.4673V58.4876V58.5078C48.0445 58.6899 48.0053 58.8921 47.9663 59.0742V59.1348C47.9272 59.3169 47.8881 59.4989 47.849 59.681C47.849 59.7012 47.8295 59.7416 47.8295 59.7619C47.7904 59.9439 47.7513 60.126 47.6927 60.308V60.3687C47.6341 60.5709 47.5755 60.753 47.5364 60.935C47.5168 60.9553 47.5168 60.9754 47.5168 60.9754C47.4582 61.1777 47.3996 61.38 47.341 61.5822C47.2628 61.7845 47.2042 61.9665 47.1261 62.1688C47.0479 62.371 46.9893 62.5733 46.9111 62.7553C46.833 62.9576 46.7548 63.1396 46.6767 63.3419H46.6571C46.5789 63.5239 46.5008 63.7262 46.4031 63.9082C46.3835 63.9689 46.364 64.0094 46.3445 64.0498C46.3249 64.0701 46.3249 64.0902 46.3054 64.1105C45.0354 66.7601 43.1597 69.0861 40.8151 70.9065C40.6588 71.0076 40.5025 71.129 40.3462 71.2503C40.3071 71.2908 40.2485 71.311 40.2094 71.3515C40.0726 71.4526 39.9359 71.5537 39.7796 71.6549L39.8382 71.7762H39.8577C40.1313 71.7358 40.4048 71.6953 40.6784 71.6549H40.6979C41.2059 71.5739 41.7139 71.4728 42.2219 71.3717C42.3587 71.3514 42.515 71.311 42.6518 71.2706C42.7495 71.2503 42.8276 71.2301 42.9253 71.2099C43.0621 71.1896 43.1989 71.1492 43.3356 71.129C43.4529 71.0885 43.5701 71.0683 43.6873 71.0278C45.6412 70.5424 47.5364 69.8749 49.3535 69.0861C46.2469 73.4752 42.0852 77.0148 37.2201 79.3408C39.467 79.179 41.7139 78.7947 43.8827 78.1474C51.7567 75.7405 58.3803 70.2592 62.3466 62.8766C61.5455 67.5489 59.748 71.9987 57.0907 75.8821C58.986 74.5876 60.7249 73.0909 62.3075 71.3919C66.6842 66.659 69.5563 60.6518 70.5332 54.1996C71.1975 57.3953 71.3929 60.6922 71.0999 63.9486C85.2067 43.5808 72.2722 22.4647 66.86 16.9025C66.8404 16.8621 66.821 16.8418 66.821 16.8014C66.8014 16.8216 66.8014 16.8216 66.8014 16.8418C66.8014 16.8215 66.8014 16.8215 66.7818 16.8014C66.7818 17.0441 66.7622 17.2868 66.7428 17.5295C66.6841 17.9947 66.6255 18.4397 66.5474 18.8847C66.4497 19.3296 66.3324 19.7746 66.2152 20.2196C66.0784 20.6443 65.9221 21.0893 65.7463 21.5141C65.5704 21.9186 65.3751 22.3433 65.1601 22.7479C64.9452 23.1322 64.7107 23.5367 64.4567 23.9007C64.2027 24.2851 63.9292 24.6491 63.6557 24.993C63.3626 25.357 63.05 25.6807 62.7373 26.0043C62.542 26.1863 62.3661 26.3481 62.1707 26.5099C62.0144 26.6515 61.8777 26.7729 61.7213 26.9144C61.3697 27.1976 61.018 27.4606 60.6272 27.7033C60.256 27.946 59.8652 28.1887 59.4744 28.391C59.0641 28.5932 58.6538 28.7753 58.2435 28.9573C57.8332 29.1191 57.4033 29.2607 56.9735 29.3821C56.5436 29.5034 56.0943 29.6045 55.6644 29.6854C55.215 29.7664 54.7656 29.8068 54.3358 29.8473C54.0232 29.8675 53.7106 29.8877 53.3979 29.8877C52.9486 29.8877 52.4992 29.8473 52.0693 29.8067C51.6199 29.7663 51.1706 29.7056 50.7407 29.6045C50.2913 29.5235 49.8615 29.4022 49.4316 29.2606H49.4121C49.8419 29.2202 50.2718 29.1797 50.7016 29.0988C51.151 29.0179 51.5808 28.9168 52.0107 28.7954C52.4405 28.6741 52.8704 28.5325 53.2807 28.3707C53.7105 28.2089 54.1208 28.0066 54.5116 27.8043C54.9219 27.6021 55.2932 27.3796 55.6839 27.1369C56.0552 26.8739 56.4264 26.611 56.7781 26.3278C57.1298 26.0447 57.4619 25.7413 57.7745 25.4177C58.1067 25.1143 58.3998 24.7704 58.6929 24.4266C58.9859 24.0625 59.2595 23.6984 59.5135 23.3343C59.5525 23.2737 59.5917 23.1928 59.6307 23.1321C59.8261 22.8085 60.0215 22.4848 60.1973 22.1612C60.4122 21.7567 60.6076 21.3522 60.7835 20.9274C60.9593 20.5027 61.1156 20.0779 61.2524 19.633C61.3892 19.2082 61.4869 18.7632 61.5846 18.3183C61.6627 17.853 61.7409 17.4081 61.7799 16.9631C61.819 16.4979 61.8581 16.0327 61.8581 15.5877C61.8581 15.2641 61.8385 14.9405 61.8191 14.6169C61.78 14.1517 61.7214 13.7067 61.6628 13.2617C61.5846 12.7965 61.4869 12.3515 61.3697 11.9065C61.2329 11.4818 61.0961 11.0368 60.9398 10.6121C60.7835 10.1873 60.5882 9.76257 60.3928 9.35804C60.1778 8.95352 59.9629 8.54899 59.7285 8.1647C59.4745 7.7804 59.2205 7.41633 58.9469 7.05225C58.6538 6.70841 58.3608 6.36456 58.0481 6.02072C57.8918 5.85891 57.716 5.67687 57.5401 5.51507C56.6609 4.80715 55.7426 4.13968 54.8243 3.53289C54.6875 3.45196 54.5703 3.39131 54.4335 3.33063C53.7887 2.90588 53.183 2.68328 52.5773 2.48102Z" fill="#E0234E"/>
</g>
</svg>
