<svg width="80" height="80" viewBox="0 0 80 80" fill="none" xmlns="http://www.w3.org/2000/svg">
<g id="Postgresql_elephant">
<g id="Layer_x0020_3">
<path id="Vector" d="M59.8427 58.2388C60.3672 53.9996 60.21 53.3779 63.4649 54.0646L64.2912 54.135C66.7939 54.2455 70.0678 53.7445 71.9912 52.8776C76.1317 51.0139 78.5868 47.9021 74.5042 48.7198C65.1914 50.5835 64.5512 47.5244 64.5512 47.5244C74.3849 33.3698 78.4957 15.4018 74.9474 11.0036C65.2694 -0.993119 48.5169 4.67984 48.2366 4.82713L48.1474 4.84312C46.3073 4.47274 44.248 4.25145 41.9347 4.21516C37.7204 4.14798 34.5226 5.28696 32.0969 7.07185C32.0969 7.07185 2.21141 -4.87257 3.60174 22.0932C3.89743 27.8295 12.0776 65.4994 21.8339 54.1213C25.3998 49.9608 28.8459 46.4429 28.8459 46.4429C30.5571 47.5458 32.6059 48.1084 34.7546 47.9063L34.9207 47.7689C34.8686 48.2855 34.8916 48.7907 34.9871 49.3889C32.4742 52.1132 33.2126 52.5915 28.1877 53.5949C23.1039 54.6113 26.0906 56.421 28.0401 56.894C30.4042 57.4675 35.8731 58.2799 39.5693 53.2613L39.4221 53.8339C40.4081 54.5991 40.3414 59.3338 40.4812 62.7165C40.6212 66.0995 40.8547 69.2564 41.5655 71.1176C42.2763 72.9785 43.1151 77.7725 49.719 76.3995C55.2383 75.2521 59.4581 73.6008 59.8427 58.2388Z" fill="black" stroke="black" stroke-width="2"/>
<path id="Vector_2" d="M74.506 48.7197C65.1923 50.5834 64.5521 47.5243 64.5521 47.5243C74.3858 33.3688 78.4966 15.4004 74.9491 11.0027C65.271 -0.99322 48.5178 4.6801 48.2383 4.82739L48.1483 4.84302C46.3082 4.47246 44.2489 4.2517 41.9345 4.21506C37.7202 4.14806 34.5235 5.28686 32.0978 7.07139C32.0978 7.07139 2.21175 -4.87249 3.60171 22.0931C3.8974 27.8298 12.0774 65.4997 21.8341 54.1216C25.4002 49.961 28.8457 46.4432 28.8457 46.4432C30.5571 47.546 32.6058 48.1086 34.7536 47.9065L34.9205 47.7691C34.8686 48.2857 34.8923 48.791 34.9873 49.3891C32.4738 52.1134 33.2124 52.5918 28.1879 53.5951C23.1037 54.6116 26.0904 56.4213 28.0405 56.8942C30.4045 57.4677 35.8738 58.2802 39.5693 53.2616L39.4219 53.8342C40.4068 54.5994 41.0983 58.8117 40.9824 62.63C40.8665 66.4486 40.7891 69.0702 41.5651 71.1178C42.3411 73.1655 43.1145 77.7728 49.7197 76.3998C55.239 75.2523 58.0991 72.2789 58.497 67.319C58.7793 63.7929 59.4183 64.3142 59.4586 61.1616L59.9712 59.6692C60.5622 54.8893 60.065 53.3472 63.4654 54.0645L64.2917 54.1349C66.7945 54.2453 70.0701 53.7444 71.9925 52.8775C76.1322 51.0138 78.5874 47.9021 74.5056 48.7197H74.506Z" fill="#336791"/>
<path id="Vector_3" d="M39.9683 51.457C39.7118 60.3511 40.0327 69.3072 40.9298 71.4838C41.8274 73.6605 43.7484 77.8941 50.3541 76.5213C55.8729 75.3735 57.8809 73.1523 58.7522 68.2496C59.394 64.6424 60.6312 54.6246 60.7898 52.5721" stroke="white" stroke-width="2" stroke-linecap="round" stroke-linejoin="round"/>
<path id="Vector_4" d="M32.0514 6.8699C32.0514 6.8699 2.14497 -4.98794 3.5353 21.9776C3.83099 27.7143 12.0115 65.3855 21.768 54.0069C25.3334 49.8458 28.5578 46.5822 28.5578 46.5822" stroke="white" stroke-width="2" stroke-linecap="round" stroke-linejoin="round"/>
<path id="Vector_5" d="M48.2057 4.70653C47.1704 5.0214 64.8414 -1.56026 74.884 10.8885C78.4314 15.2864 74.3206 33.2547 64.487 47.4106" stroke="white" stroke-width="2" stroke-linecap="round" stroke-linejoin="round"/>
<path id="Vector_6" d="M64.4861 47.4106C64.4861 47.4106 65.1269 50.4706 74.4407 48.6056C78.5215 47.788 76.0656 50.9001 71.9269 52.7647C68.5302 54.294 60.915 54.686 60.7906 52.5727C60.4704 47.1203 64.7984 48.7768 64.4861 47.4106ZM64.4861 47.4106C64.2037 46.1802 62.2683 44.9726 60.9879 41.9613C59.8702 39.3329 45.6579 19.1766 64.9293 22.1701C65.6353 22.0284 59.9031 4.38732 41.8678 4.10046C23.8365 3.81361 24.428 25.6122 24.428 25.6122" stroke="white" stroke-width="2" stroke-linecap="round" stroke-linejoin="bevel"/>
<path id="Vector_7" d="M34.921 49.274C32.4071 51.9982 33.1464 52.4765 28.1215 53.4802C23.0374 54.4969 26.0245 56.3062 27.974 56.7789C30.338 57.3528 35.8073 58.1653 39.5028 53.1454C40.6282 51.617 39.4961 49.1783 37.9503 48.5566C37.2034 48.2565 36.2046 47.8804 34.921 49.274Z" stroke="white" stroke-width="2" stroke-linecap="round" stroke-linejoin="round"/>
<path id="Vector_8" d="M34.7572 49.2277C34.5039 47.626 35.2997 45.72 36.1525 43.4902C37.4342 40.1446 40.3913 36.7984 38.0257 26.1857C36.2625 18.2772 24.4361 24.5399 24.4287 25.6122C24.4215 26.6842 24.9636 31.0475 24.2311 36.1286C23.2754 42.759 28.58 48.3665 34.6885 47.7928" stroke="white" stroke-width="2" stroke-linecap="round" stroke-linejoin="round"/>
<path id="Vector_9" d="M31.9421 25.451C31.8888 25.8172 32.6333 26.7946 33.6041 26.9251C34.5732 27.0563 35.4027 26.2925 35.4553 25.9266C35.5079 25.5604 34.7643 25.157 33.7931 25.0258C32.8235 24.8945 31.9936 25.0856 31.9423 25.451H31.9421Z" fill="white" stroke="white" stroke-width="2"/>
<path id="Vector_10" d="M61.4603 24.7048C61.5129 25.0711 60.7693 26.0484 59.7983 26.179C58.8285 26.3101 57.999 25.5463 57.9459 25.1805C57.8946 24.8142 58.6383 24.4108 59.6084 24.2797C60.5784 24.1485 61.4077 24.3395 61.4603 24.705V24.7048Z" fill="white" stroke="white" stroke-width="2"/>
<path id="Vector_11" d="M64.9292 22.1719C65.089 25.0447 64.2914 27.0015 64.1908 30.0597C64.042 34.505 66.3755 39.5929 62.8594 44.6872" stroke="white" stroke-width="2" stroke-linecap="round" stroke-linejoin="round"/>
</g>
</g>
</svg>
