<svg width="80" height="28" viewBox="0 0 80 28" fill="none" xmlns="http://www.w3.org/2000/svg">
<g id="Logo-redis" clip-path="url(#clip0_1_5143)">
<g id="Layer 2">
<g id="Layer 1">
<g id="Clip path group">
<mask id="mask0_1_5143" style="mask-type:luminance" maskUnits="userSpaceOnUse" x="0" y="0" width="32" height="28">
<g id="clip-path">
<path id="Vector" d="M31.7728 0.00390625H0.00195312V27.2311H31.7728V0.00390625Z" fill="white"/>
</g>
</mask>
<g mask="url(#mask0_1_5143)">
<g id="Group">
<path id="Vector_2" d="M30.523 20.9962C28.8305 21.8815 20.047 25.4943 18.1549 26.4859C16.2628 27.4775 15.2495 27.4493 13.7696 26.742C12.2898 26.0346 2.97464 22.246 1.2865 21.4389C0.435922 21.0396 0.00195312 20.699 0.00195312 20.38V17.1664C0.00195312 17.1664 12.1704 14.5257 14.1341 13.814C16.0979 13.1023 16.777 13.085 18.4456 13.6969C20.1142 14.3088 30.1172 16.1141 31.7685 16.7129V19.8809C31.7685 20.2107 31.3888 20.5319 30.523 20.9941V20.9962Z" fill="#A32422"/>
<path id="Vector_3" d="M30.5232 17.7973C28.8307 18.6783 20.0472 22.2911 18.1551 23.2653C16.263 24.2396 15.2497 24.2309 13.7698 23.5257C12.29 22.8205 2.97485 19.0319 1.28671 18.2313C-0.401425 17.4306 -0.433973 16.8708 1.22162 16.2242C2.87721 15.5776 12.1707 11.9387 14.1344 11.2227C16.0981 10.5066 16.7772 10.4914 18.4458 11.1055C20.1145 11.7196 28.8611 15.1935 30.5037 15.7989C32.1462 16.4043 32.2222 16.9012 30.5232 17.7799V17.7973Z" fill="#DC382C"/>
<path id="Vector_4" d="M30.523 15.76C28.8305 16.6431 20.047 20.2538 18.1549 21.228C16.2628 22.2023 15.2581 22.1936 13.7783 21.4841C12.2985 20.7745 2.97464 17.0077 1.2865 16.2027C0.435922 15.7991 0.00195312 15.4606 0.00195312 15.1394V11.9368C0.00195312 11.9368 12.1704 9.28737 14.1341 8.57566C16.0979 7.86395 16.777 7.84443 18.4456 8.465C20.1142 9.08558 30.1172 10.8735 31.7685 11.4767V14.6447C31.7685 14.9745 31.3888 15.3044 30.523 15.76Z" fill="#A32422"/>
<path id="Vector_5" d="M30.5224 12.546C28.8299 13.4313 20.0464 17.0419 18.1543 18.0162C16.2622 18.9905 15.2488 18.984 13.769 18.2766C12.2892 17.5692 2.97403 13.7959 1.28589 12.9887C-0.40225 12.1815 -0.432628 11.6325 1.22079 10.9859C2.87421 10.3393 12.1698 6.69178 14.1335 5.99526C16.0972 5.29874 16.7764 5.25534 18.445 5.86073C20.1136 6.46612 28.8603 9.97042 30.5028 10.5584C32.1454 11.1465 32.2214 11.6629 30.5224 12.5395V12.546Z" fill="#DC382C"/>
<path id="Vector_6" d="M30.523 10.3326C28.8305 11.2179 20.047 14.8306 18.1549 15.8027C16.2628 16.7748 15.2581 16.7683 13.7783 16.0631C12.2985 15.3579 2.97464 11.5802 1.2865 10.7752C0.435922 10.376 0.00195312 10.0353 0.00195312 9.71415V6.50061C0.00195312 6.50061 12.1704 3.85991 14.1341 3.15037C16.0979 2.44083 16.777 2.41913 18.4456 3.03103C20.1142 3.64293 30.1129 5.44824 31.7641 6.05145V9.21943C31.7685 9.55358 31.3888 9.87906 30.523 10.3326Z" fill="#A32422"/>
<path id="Vector_7" d="M30.5232 7.12063C28.8307 7.98857 20.0472 11.6231 18.1551 12.5886C16.263 13.5542 15.2497 13.5521 13.7698 12.849C12.29 12.146 2.97485 8.36395 1.28671 7.56111C-0.401425 6.75827 -0.433973 6.20062 1.22162 5.554C2.87721 4.90739 12.1707 1.26205 14.1344 0.554682C16.0981 -0.152688 16.7772 -0.174386 18.4458 0.43751C20.1145 1.04941 28.8611 4.52767 30.5037 5.13088C32.1462 5.7341 32.2222 6.23533 30.5232 7.11412V7.12063Z" fill="#DC382C"/>
</g>
</g>
</g>
<path id="Vector_8" d="M16.3836 2.55587L18.4797 1.86803L17.9112 3.22635L20.0441 4.02486L17.2949 4.31128L16.6765 5.79545L15.6827 4.13986L12.5039 3.85344L14.8777 2.99852L14.1638 1.68359L16.3836 2.55587Z" fill="white"/>
<path id="Vector_9" d="M16.5171 11.2244L11.3789 9.09143L18.739 7.96094L16.5171 11.2244Z" fill="white"/>
<path id="Vector_10" d="M9.39313 4.85132C11.563 4.85132 13.3271 5.53482 13.3271 6.37021C13.3271 7.2056 11.5586 7.8891 9.39313 7.8891C7.22762 7.8891 5.45703 7.2056 5.45703 6.37021C5.45703 5.53482 7.22111 4.85132 9.39313 4.85132Z" fill="white"/>
<path id="Vector_11" d="M23.3008 4.42969L27.6557 6.15037L23.3051 7.87106L23.3008 4.42969Z" fill="#741113"/>
<path id="Vector_12" d="M23.3019 4.42969L23.3062 7.87106L22.8332 8.0555L18.4805 6.33481L23.3019 4.42969Z" fill="#AC2724"/>
<path id="Vector_13" d="M41.8805 8.98454C42.2561 8.57473 42.7178 8.25314 43.2323 8.04282C43.7337 7.82786 44.2711 7.70934 44.8163 7.69348C45.0114 7.67575 45.208 7.69755 45.3944 7.75758C45.5808 7.8176 45.7532 7.91462 45.9013 8.04282C46.011 8.14897 46.0971 8.27709 46.1539 8.41881C46.2108 8.56052 46.2371 8.71263 46.2311 8.86519C46.2332 9.17197 46.1148 9.46731 45.9013 9.68757C45.7981 9.80277 45.6711 9.89409 45.5291 9.95518C45.3871 10.0163 45.2334 10.0456 45.0789 10.0413C43.7249 10.1606 41.8458 11.5102 41.8458 13.3438V17.5055C41.837 17.8145 41.7103 18.1083 41.4915 18.3266C41.2728 18.545 40.9787 18.6712 40.6698 18.6794C40.5117 18.685 40.3544 18.6554 40.2091 18.5927C40.0639 18.53 39.9344 18.4359 39.83 18.317C39.7201 18.2099 39.6324 18.0821 39.5721 17.941C39.5117 17.7998 39.4799 17.6482 39.4785 17.4947V8.81529C39.4798 8.66178 39.5116 8.51005 39.5719 8.36889C39.6322 8.22773 39.72 8.09994 39.83 7.99292C40.0876 7.80707 40.3956 7.70414 40.7132 7.69782C41.0222 7.70391 41.3169 7.82924 41.5357 8.04762C41.7545 8.26599 41.8804 8.56049 41.887 8.86953L41.8805 8.98454Z" fill="#494C4D"/>
<path id="Vector_14" d="M56.1384 12.8088C56.1398 13.0923 56.0353 13.3662 55.8455 13.5769C55.6203 13.7858 55.3297 13.91 55.0231 13.9284H48.0796C48.1452 14.4799 48.4136 14.9872 48.8325 15.3518C49.3693 15.929 50.1037 16.283 50.8895 16.3434C51.2875 16.411 51.6949 16.3991 52.0882 16.3082C52.4816 16.2173 52.8529 16.0493 53.1809 15.814C53.2961 15.6978 53.4339 15.6065 53.5858 15.5457C53.7377 15.4849 53.9005 15.4558 54.064 15.4603C54.2045 15.4537 54.3449 15.4765 54.476 15.5273C54.6072 15.5782 54.7263 15.6558 54.8256 15.7554C54.9184 15.8405 54.9935 15.9431 55.0465 16.0572C55.0996 16.1714 55.1296 16.2949 55.1348 16.4207C55.1401 16.5465 55.1204 16.672 55.0771 16.7902C55.0337 16.9084 54.9674 17.0169 54.8821 17.1094C54.8647 17.1289 54.8452 17.1463 54.8256 17.1658C54.3133 17.6401 53.7125 18.0088 53.0576 18.2508C52.4027 18.4928 51.7065 18.6034 51.0089 18.5762C50.2926 18.5918 49.5814 18.4529 48.9235 18.1691C48.2657 17.8853 47.6766 17.4632 47.1965 16.9315C46.2013 15.8804 45.6362 14.4946 45.6125 13.0474C45.5974 12.3268 45.7302 11.6108 46.0027 10.9435C46.2751 10.2763 46.6814 9.67191 47.1965 9.16776C47.666 8.65629 48.2388 8.25039 48.8769 7.97695C49.5151 7.7035 50.2041 7.56874 50.8982 7.5816C51.5733 7.55583 52.2461 7.67365 52.8723 7.92725C53.4985 8.18086 54.0637 8.56448 54.5305 9.05275C55.5265 10.0069 56.1176 11.3073 56.1818 12.6851V12.8001L56.1384 12.8088ZM50.9091 9.69503C50.1788 9.70748 49.4767 9.97893 48.928 10.461C48.4606 10.8539 48.1313 11.3862 47.9885 11.9799H54.1573C53.9844 11.3833 53.6102 10.865 53.0984 10.5131C52.4807 10.0151 51.7211 9.72567 50.9286 9.68635" fill="#494C4D"/>
<path id="Vector_15" d="M67.1927 17.3873C67.1846 17.6963 67.0583 17.9904 66.84 18.2091C66.6216 18.4278 66.3278 18.5546 66.0189 18.5634C65.748 18.5526 65.4876 18.4554 65.276 18.2859C65.0644 18.1164 64.9126 17.8837 64.8428 17.6217C63.9685 18.2476 62.917 18.5776 61.8419 18.5634C61.1398 18.5713 60.4436 18.4345 59.7967 18.1617C59.1497 17.8888 58.5659 17.4856 58.0816 16.9772C57.5745 16.4698 57.1771 15.8636 56.9139 15.1962C56.6508 14.5288 56.5275 13.8145 56.5518 13.0976C56.5425 11.6561 57.0906 10.2668 58.0816 9.22005C58.5625 8.70277 59.1442 8.28941 59.7909 8.00543C60.4376 7.72145 61.1356 7.57285 61.8419 7.5688C62.8969 7.55483 63.9277 7.88546 64.7777 8.51051V4.40299C64.7736 4.24849 64.8031 4.09493 64.8642 3.95294C64.9253 3.81096 65.0164 3.68392 65.1314 3.58062C65.2397 3.46907 65.3692 3.38031 65.5123 3.31956C65.6554 3.25882 65.8092 3.22733 65.9646 3.22694C66.1191 3.22284 66.2727 3.25235 66.4147 3.31342C66.5567 3.37448 66.6837 3.46565 66.787 3.58062C66.8973 3.68754 66.9854 3.81526 67.0461 3.95641C67.1068 4.09757 67.139 4.24935 67.1407 4.40299V17.3873H67.1927ZM61.9092 16.2113C62.3001 16.2193 62.6878 16.1393 63.0435 15.977C63.3993 15.8147 63.7139 15.5744 63.964 15.2739C64.5262 14.6915 64.8403 13.9136 64.8403 13.1041C64.8403 12.2946 64.5262 11.5167 63.964 10.9342C63.7057 10.6425 63.3898 10.4074 63.0361 10.2438C62.6825 10.0803 62.2988 9.99173 61.9092 9.98383C61.5167 9.97024 61.1265 10.0483 60.7694 10.2117C60.4124 10.3752 60.0983 10.6196 59.8522 10.9255C59.29 11.508 58.9759 12.2859 58.9759 13.0954C58.9759 13.9049 59.29 14.6828 59.8522 15.2652C60.1074 15.5603 60.4233 15.7969 60.7783 15.9586C61.1333 16.1204 61.519 16.2036 61.9092 16.2026" fill="#494C4D"/>
<path id="Vector_16" d="M70.6678 4.40709V4.88011C70.673 5.04614 70.6434 5.21141 70.581 5.36535C70.5186 5.51928 70.4247 5.6585 70.3055 5.77409C70.1992 5.88151 70.07 5.96361 69.9277 6.01432C69.7853 6.06503 69.6334 6.08304 69.4831 6.06702C69.3292 6.07222 69.176 6.04364 69.0343 5.98328C68.8926 5.92293 68.7658 5.83227 68.6629 5.71767C68.5462 5.60331 68.4545 5.46596 68.3936 5.31432C68.3327 5.16267 68.304 5.00004 68.3092 4.83672V4.40275C68.3099 4.24895 68.3416 4.09688 68.4024 3.95559C68.4632 3.8143 68.5518 3.6867 68.6629 3.58038C68.7693 3.46999 68.8967 3.38188 69.0375 3.32116C69.1783 3.26044 69.3298 3.22833 69.4831 3.22669C69.6378 3.22429 69.7912 3.25499 69.933 3.31674C70.0748 3.37849 70.2018 3.46986 70.3055 3.58472C70.4218 3.68723 70.5144 3.81396 70.5766 3.95602C70.6388 4.09808 70.6692 4.25204 70.6657 4.40709M68.6846 7.99384C68.7909 7.88271 68.9185 7.79412 69.0598 7.73335C69.2011 7.67259 69.3532 7.64089 69.507 7.64016C69.6616 7.63503 69.8155 7.66406 69.9576 7.7252C70.0998 7.78633 70.2267 7.87806 70.3293 7.99384C70.4409 8.10846 70.5282 8.2444 70.5859 8.39353C70.6437 8.54267 70.6708 8.70193 70.6657 8.86178V17.4565C70.6749 17.6123 70.6471 17.7681 70.5844 17.911C70.5218 18.054 70.4262 18.1801 70.3055 18.2789C70.199 18.3893 70.0717 18.4774 69.9309 18.5381C69.7901 18.5988 69.6386 18.631 69.4853 18.6326C69.3307 18.637 69.1771 18.6076 69.035 18.5465C68.893 18.4854 68.766 18.3941 68.6629 18.2789C68.5518 18.1726 68.4632 18.045 68.4024 17.9037C68.3416 17.7624 68.3099 17.6103 68.3092 17.4565V8.87046C68.3051 8.70922 68.3344 8.54888 68.3953 8.39951C68.4562 8.25015 68.5473 8.11498 68.6629 8.00252" fill="#494C4D"/>
<path id="Vector_17" d="M79.001 8.81289C79.2417 8.97872 79.4101 9.23017 79.4718 9.51592C79.5192 9.81472 79.4785 10.1209 79.3546 10.3969C79.1862 10.6355 78.9347 10.8027 78.6494 10.8656C78.3434 10.922 78.0274 10.8591 77.7663 10.6898C76.9439 10.1625 76.3017 9.86961 75.7701 9.86961C75.3005 9.83937 74.8365 9.98476 74.4682 10.2775C74.2338 10.4555 74.1166 10.5726 74.1166 10.6898C74.1004 10.792 74.1211 10.8967 74.1752 10.9849C74.242 11.0572 74.3214 11.1168 74.4096 11.1607C74.8888 11.4618 75.4337 11.6427 75.9979 11.6879C76.7286 11.8084 77.4395 12.0274 78.1113 12.3389C78.7037 12.5864 79.199 13.0207 79.5217 13.5757C79.7313 13.8991 79.8748 14.2608 79.944 14.6399C80.0131 15.019 80.0066 15.4081 79.9247 15.7847C79.8428 16.1612 79.6872 16.5179 79.4668 16.8341C79.2465 17.1502 78.9657 17.4196 78.6408 17.6268C77.8188 18.2143 76.8302 18.523 75.82 18.5078C74.4682 18.5078 73.1771 17.9805 71.9424 16.9889C71.7179 16.791 71.5716 16.5193 71.5302 16.2229C71.5099 16.0031 71.5545 15.7821 71.6585 15.5874C71.7625 15.3927 71.9214 15.2328 72.1154 15.1274C72.3094 15.0221 72.5301 14.976 72.75 14.9949C72.97 15.0137 73.1796 15.0967 73.3528 15.2335C74.0014 15.8503 74.8664 16.1878 75.7614 16.173C76.2819 16.1907 76.7951 16.0467 77.2304 15.7607C77.4647 15.5264 77.6426 15.3506 77.6426 15.1727C77.6426 14.9948 77.6426 14.9384 77.584 14.8798C77.584 14.819 77.4647 14.704 77.2889 14.6454C76.7526 14.3138 76.1508 14.1021 75.5249 14.0249C74.827 13.9243 74.1516 13.704 73.5286 13.3739C72.958 13.0956 72.4714 12.6711 72.1182 12.1436C71.8868 11.7308 71.7664 11.265 71.7689 10.7918C71.768 10.3145 71.8854 9.84452 72.1107 9.42381C72.336 9.0031 72.6622 8.64483 73.0599 8.38109C73.8558 7.83856 74.7982 7.55167 75.7614 7.55872C76.7508 7.61948 77.8184 8.02741 78.9923 8.79336" fill="#494C4D"/>
</g>
</g>
</g>
<defs>
<clipPath id="clip0_1_5143">
<rect width="80" height="27.2511" fill="white"/>
</clipPath>
</defs>
</svg>
