<svg width="80" height="80" viewBox="0 0 80 80" fill="none" xmlns="http://www.w3.org/2000/svg">
<g id="Socket-io">
<path id="Vector" d="M30.1393 2.30693C40.2227 -0.279011 51.3671 1.22786 60.2599 6.7163C71.4599 13.4141 78.7718 26.0838 78.9577 39.1257C79.3671 52.2975 72.5018 65.3582 61.4693 72.521C49.1902 80.7813 32.2043 81.0979 19.6646 73.2466C6.88335 65.6185 -0.577279 50.2325 1.33928 35.4604C2.88303 19.851 14.9393 6.08349 30.1393 2.30693Z" fill="#010101"/>
<path id="Vector_2" d="M28.596 8.68816C47.6472 1.06004 71.0147 15.1438 72.9866 35.5719C76.0566 53.9532 60.8007 72.6322 42.1772 73.1719C24.4657 74.9394 7.34944 59.925 6.84725 42.1394C5.52632 27.7394 15.0148 13.451 28.596 8.68816Z" fill="white"/>
<path id="Vector_3" d="M30.511 38.0264C39.0507 31.0495 47.4041 23.8308 56.1298 17.0586C51.5529 24.0914 46.846 31.0308 42.2691 38.0633C38.3435 38.082 34.4182 38.0823 30.511 38.0264ZM37.7298 41.9145C41.6738 41.9145 45.5995 41.9145 49.5251 41.9705C40.9298 48.9098 32.6135 56.1842 23.8691 62.938C28.446 55.9052 33.1529 48.9473 37.7298 41.9145Z" fill="#010101"/>
</g>
</svg>
